<svg width="190" height="194" viewBox="0 0 190 194" fill="none" xmlns="http://www.w3.org/2000/svg">
<path d="M66.0384 88.327C68.4843 88.0202 70.5525 86.3697 71.3942 84.0529L98.7316 8.81107C100.288 4.52773 97.1156 0 92.5583 0H34.8369C32.0289 0 29.5314 1.78506 28.6224 4.44185L0.361105 87.0402C-1.21102 91.635 2.57454 96.288 7.39307 95.6836L66.0384 88.327Z" fill="#0063F2"/>
<path d="M7.39284 98.3162C2.57435 97.7118 -1.21108 102.365 0.361023 106.96L28.6224 189.558C29.5314 192.215 32.0289 194 34.8369 194H92.5597C97.1166 194 100.289 189.473 98.7333 185.19L71.4075 109.948C70.566 107.631 68.4975 105.98 66.0513 105.673L7.39284 98.3162Z" fill="#0063F2"/>
<path d="M156.314 88.327C158.76 88.0202 160.828 86.3697 161.67 84.0529L189.007 8.81107C190.563 4.52773 187.391 0 182.834 0H125.112C122.304 0 119.807 1.78506 118.898 4.44185L90.6365 87.0402C89.0643 91.635 92.8499 96.288 97.6684 95.6836L156.314 88.327Z" fill="#0063F2"/>
<path d="M97.6682 98.3162C92.8497 97.7118 89.0643 102.365 90.6364 106.96L118.898 189.558C119.807 192.215 122.304 194 125.112 194H182.835C187.392 194 190.564 189.473 189.009 185.19L161.683 109.948C160.841 107.631 158.773 105.98 156.327 105.673L97.6682 98.3162Z" fill="#0063F2"/>
</svg>
