<svg width="42" height="45" viewBox="0 0 42 45" fill="none" xmlns="http://www.w3.org/2000/svg">
<path fill-rule="evenodd" clip-rule="evenodd" d="M14.1969 0.513184C14.8668 0.513184 15.4098 1.05621 15.4098 1.72608V3.63483C17.1081 3.50703 18.989 3.4521 21.0704 3.4521C23.1517 3.4521 25.0326 3.50703 26.7309 3.63483V1.72608C26.7309 1.05621 27.274 0.513184 27.9438 0.513184C28.6137 0.513184 29.1567 1.05621 29.1567 1.72608V3.88519C37.536 5.01937 40.6344 8.64502 41.45 17.7736C41.4852 18.1675 41.5161 18.5718 41.5431 18.9865C41.5687 19.3806 41.5906 19.7843 41.6092 20.1976C41.6646 21.4317 41.6896 22.7522 41.6896 24.1646C41.6896 41.2213 38.0503 44.8771 21.0704 44.8771C4.09046 44.8771 0.451172 41.2213 0.451172 24.1646C0.451172 22.7522 0.476125 21.4317 0.531539 20.1976C0.550098 19.7843 0.572073 19.3806 0.597672 18.9865C0.624605 18.5718 0.65555 18.1675 0.690747 17.7736C1.50628 8.64502 4.60476 5.01937 12.984 3.88519V1.72608C12.984 1.05621 13.527 0.513184 14.1969 0.513184ZM12.984 6.33567C10.2014 6.74097 8.2826 7.42588 6.91674 8.43175C4.87204 9.93754 3.62229 12.5345 3.12682 17.7736H39.0139C38.5184 12.5345 37.2687 9.93754 35.224 8.43175C33.8581 7.42588 31.9394 6.74097 29.1567 6.33567V8.63024C29.1567 9.3001 28.6137 9.84313 27.9438 9.84313C27.274 9.84313 26.7309 9.3001 26.7309 8.63024V6.06955C25.0946 5.94004 23.2208 5.87788 21.0704 5.87788C18.9199 5.87788 17.0461 5.94004 15.4098 6.06955V8.63024C15.4098 9.3001 14.8668 9.84313 14.1969 9.84313C13.527 9.84313 12.984 9.3001 12.984 8.63024V6.33567ZM39.2638 24.1646C39.2638 22.7372 39.2377 21.4185 39.1809 20.1994H2.95978C2.90298 21.4185 2.87696 22.7372 2.87696 24.1646C2.87696 28.3737 3.10462 31.5912 3.65363 34.0727C4.19669 36.5273 5.02135 38.1096 6.11246 39.2057C7.2027 40.3009 8.77485 41.1274 11.2138 41.6718C13.6808 42.2226 16.881 42.4513 21.0704 42.4513C25.2597 42.4513 28.4599 42.2226 30.927 41.6718C33.3659 41.1274 34.938 40.3009 36.0283 39.2057C37.1194 38.1096 37.944 36.5273 38.4871 34.0727C39.0361 31.5912 39.2638 28.3737 39.2638 24.1646Z" fill="#212135"/>
<path fill-rule="evenodd" clip-rule="evenodd" d="M9.54785 27.6167C9.54785 26.9468 10.0909 26.4038 10.7607 26.4038H15.9155C16.5854 26.4038 17.1284 26.9468 17.1284 27.6167C17.1284 28.2866 16.5854 28.8296 15.9155 28.8296H10.7607C10.0909 28.8296 9.54785 28.2866 9.54785 27.6167ZM26.2251 26.4038C25.5553 26.4038 25.0122 26.9468 25.0122 27.6167C25.0122 28.2866 25.5553 28.8296 26.2251 28.8296H31.3799C32.0498 28.8296 32.5928 28.2866 32.5928 27.6167C32.5928 26.9468 32.0498 26.4038 31.3799 26.4038H26.2251ZM26.2251 33.3081C25.5553 33.3081 25.0122 33.8511 25.0122 34.521C25.0122 35.1908 25.5553 35.7338 26.2251 35.7338H31.3799C32.0498 35.7338 32.5928 35.1908 32.5928 34.521C32.5928 33.8511 32.0498 33.3081 31.3799 33.3081H26.2251ZM10.7607 33.3081C10.0909 33.3081 9.54785 33.8511 9.54785 34.521C9.54785 35.1908 10.0909 35.7338 10.7607 35.7338H15.9155C16.5854 35.7338 17.1284 35.1908 17.1284 34.521C17.1284 33.8511 16.5854 33.3081 15.9155 33.3081H10.7607Z" fill="#212135"/>
</svg>
