<svg width="150" height="42" viewBox="0 0 150 42" fill="none" xmlns="http://www.w3.org/2000/svg">
<rect width="150" height="42" rx="21" fill="white"/>
<g clip-path="url(#clip0_314_11155)">
<path d="M22 31C27.5228 31 32 26.5228 32 21C32 15.4772 27.5228 11 22 11C16.4772 11 12 15.4772 12 21C12 26.5228 16.4772 31 22 31Z" fill="#F0F0F0"/>
<path d="M22 18.3912H31.6555C31.4048 17.4609 31.0237 16.5843 30.5323 15.7825H22V18.3912Z" fill="#338AF3"/>
<path d="M15.7752 28.826H28.2249C29.1375 28.0991 29.9202 27.2162 30.5323 26.2173H13.4678C14.0799 27.2162 14.8626 28.0991 15.7752 28.826Z" fill="#338AF3"/>
<path d="M15.4783 13.4194C14.6921 14.0964 14.0125 14.8937 13.4678 15.7826H15.4783V13.4194Z" fill="#338AF3"/>
<path d="M22 21.0001C22 19.9815 22 19.129 22 18.3914H18.087V21.0001H15.4782V18.3914H12.3445C12.1203 19.2232 12 20.0975 12 21.0001C12 21.9027 12.1203 22.777 12.3445 23.6088H31.6555C31.8797 22.777 32 21.9027 32 21.0001H22Z" fill="#338AF3"/>
<path d="M22 11C20.6113 11 19.2889 11.2833 18.0869 11.7948V15.7826H22C22 14.872 22 14.0975 22 13.1739H28.2248C26.5166 11.8134 24.3534 11 22 11Z" fill="#338AF3"/>
</g>
<path d="M47.68 32.512C41.216 32.512 37.408 27.584 37.408 20.672C37.408 13.856 41.28 8.768 47.808 8.768C53.408 8.768 56.288 12 57.184 16.416L53.568 16.608C53.024 13.824 51.392 11.936 47.808 11.936C43.072 11.936 40.992 15.904 40.992 20.672C40.992 25.632 43.104 29.344 47.84 29.344C51.552 29.344 53.824 26.656 53.952 23.328H47.872V20.416H57.248V32H54.88L54.72 28.384C53.6 30.848 50.816 32.512 47.68 32.512ZM60.2525 32V14.976H63.3565L63.4525 18.208C64.0925 15.968 65.4365 14.976 67.5165 14.976H69.1485V18.016H67.5165C64.9245 18.016 63.6445 19.264 63.6445 21.952V32H60.2525ZM77.613 32.384C72.653 32.384 69.549 28.864 69.549 23.488C69.549 18.112 72.653 14.592 77.517 14.592C82.157 14.592 85.293 17.888 85.293 23.616V24.48H73.069C73.229 27.808 74.925 29.472 77.645 29.472C79.629 29.472 80.973 28.48 81.517 26.88L85.037 27.104C84.141 30.272 81.357 32.384 77.613 32.384ZM73.069 21.92H81.709C81.485 18.912 79.821 17.472 77.517 17.472C75.085 17.472 73.453 19.04 73.069 21.92ZM94.778 32.384C89.818 32.384 86.714 28.864 86.714 23.488C86.714 18.112 89.818 14.592 94.682 14.592C99.322 14.592 102.458 17.888 102.458 23.616V24.48H90.234C90.394 27.808 92.09 29.472 94.81 29.472C96.794 29.472 98.138 28.48 98.682 26.88L102.202 27.104C101.306 30.272 98.522 32.384 94.778 32.384ZM90.234 21.92H98.874C98.65 18.912 96.986 17.472 94.682 17.472C92.25 17.472 90.618 19.04 90.234 21.92ZM111.943 32.384C107.047 32.384 103.879 28.864 103.879 23.488C103.879 18.112 107.047 14.592 111.943 14.592C116.071 14.592 118.983 16.832 119.559 20.768L116.007 20.96C115.655 18.752 114.087 17.536 111.943 17.536C109.063 17.536 107.399 19.744 107.399 23.488C107.399 27.232 109.063 29.44 111.943 29.44C114.119 29.44 115.687 28.224 116.007 25.76L119.559 25.952C119.015 29.856 116.103 32.384 111.943 32.384ZM128.702 32.384C123.742 32.384 120.638 28.864 120.638 23.488C120.638 18.112 123.742 14.592 128.606 14.592C133.246 14.592 136.382 17.888 136.382 23.616V24.48H124.158C124.318 27.808 126.014 29.472 128.734 29.472C130.718 29.472 132.062 28.48 132.606 26.88L136.126 27.104C135.23 30.272 132.446 32.384 128.702 32.384ZM124.158 21.92H132.798C132.574 18.912 130.91 17.472 128.606 17.472C126.174 17.472 124.542 19.04 124.158 21.92Z" fill="#070A0D"/>
<defs>
<clipPath id="clip0_314_11155">
<rect width="20" height="20" fill="white" transform="translate(12 11)"/>
</clipPath>
</defs>
</svg>
