<svg width="169" height="42" viewBox="0 0 169 42" fill="none" xmlns="http://www.w3.org/2000/svg">
<rect width="169" height="42" rx="21" fill="white"/>
<g clip-path="url(#clip0_314_11143)">
<path d="M12 21.0001C12 25.2997 14.7137 28.9651 18.5217 30.378L19.3913 21L18.5217 11.6221C14.7137 13.035 12 16.7004 12 21.0001Z" fill="#6DA544"/>
<path d="M31.9998 21C31.9998 15.4772 27.5226 11 21.9998 11C20.7766 11 19.6048 11.22 18.5215 11.622V30.378C19.6048 30.78 20.7766 31 21.9998 31C27.5226 31 31.9998 26.5228 31.9998 21Z" fill="#D80027"/>
<path d="M18.5222 24.4782C20.4432 24.4782 22.0004 22.921 22.0004 21C22.0004 19.079 20.4432 17.5217 18.5222 17.5217C16.6012 17.5217 15.0439 19.079 15.0439 21C15.0439 22.921 16.6012 24.4782 18.5222 24.4782Z" fill="#FFDA44"/>
<path d="M16.5654 19.2607V21.4346C16.5654 22.5152 17.4414 23.3912 18.522 23.3912C19.6025 23.3912 20.4785 22.5152 20.4785 21.4346V19.2607H16.5654Z" fill="#D80027"/>
<path d="M18.5213 22.0869C18.1617 22.0869 17.8691 21.7943 17.8691 21.4347V20.5652H19.1735V21.4348C19.1735 21.7943 18.8809 22.0869 18.5213 22.0869Z" fill="#F0F0F0"/>
</g>
<path d="M38.752 32V9.28H47.232C52.416 9.28 55.488 11.936 55.488 16.352C55.488 20.8 52.416 23.488 47.232 23.488H42.208V32H38.752ZM42.208 20.352H47.136C50.272 20.352 51.904 18.976 51.904 16.352C51.904 13.76 50.272 12.448 47.136 12.448H42.208V20.352ZM64.573 32.384C59.709 32.384 56.509 28.896 56.509 23.488C56.509 18.08 59.709 14.592 64.573 14.592C69.437 14.592 72.637 18.08 72.637 23.488C72.637 28.896 69.437 32.384 64.573 32.384ZM64.573 29.44C67.453 29.44 69.117 27.232 69.117 23.488C69.117 19.744 67.453 17.536 64.573 17.536C61.693 17.536 60.029 19.744 60.029 23.488C60.029 27.232 61.693 29.44 64.573 29.44ZM75.105 32V14.976H78.209L78.305 18.208C78.945 15.968 80.289 14.976 82.369 14.976H84.001V18.016H82.369C79.777 18.016 78.497 19.264 78.497 21.952V32H75.105ZM91.8605 32C88.6285 32 87.1245 30.592 87.1245 27.392V17.76H84.5325V14.976H87.1245V10.976H90.5165V14.976H95.0285V17.76H90.5165V27.136C90.5165 28.736 91.1885 29.216 92.5965 29.216H95.0285V32H91.8605ZM102.972 32.384C99.5165 32.384 97.3725 29.984 97.3725 25.92V14.976H100.765V25.056C100.765 28.16 101.821 29.536 103.997 29.536C106.461 29.536 107.933 27.872 107.933 24.96V14.976H111.325V32H108.157L108.125 29.216C107.229 31.296 105.437 32.384 102.972 32.384ZM121.698 37.184C117.634 37.184 115.01 35.232 114.274 32.288L117.794 32.064C118.242 33.504 119.298 34.368 121.698 34.368C124.514 34.368 126.082 33.216 126.082 30.752V28.288C125.25 30.016 123.33 31.136 121.122 31.136C116.834 31.136 113.794 27.776 113.794 22.88C113.794 18.016 116.77 14.592 120.994 14.592C123.426 14.592 125.378 15.776 126.21 17.664V14.976H129.474V30.656C129.474 34.848 126.466 37.184 121.698 37.184ZM121.666 28.256C124.322 28.256 126.05 26.208 126.082 22.848C126.146 19.52 124.354 17.472 121.666 17.472C118.914 17.472 117.314 19.552 117.314 22.848C117.314 26.176 118.978 28.256 121.666 28.256ZM138.095 32.384C134.543 32.384 132.271 30.688 132.271 27.744C132.271 24.832 133.967 23.264 137.711 22.528L143.567 21.408C143.567 18.784 142.319 17.472 139.887 17.472C137.711 17.472 136.495 18.464 136.047 20.32L132.559 20.096C133.199 16.704 135.855 14.592 139.887 14.592C144.495 14.592 146.959 17.184 146.959 21.6V28.224C146.959 29.056 147.215 29.312 147.855 29.312H148.463V32C148.239 32.064 147.727 32.096 147.215 32.096C145.263 32.096 144.111 31.36 143.855 29.376C142.991 31.168 140.751 32.384 138.095 32.384ZM138.639 29.696C141.711 29.696 143.567 27.776 143.567 25.056V23.968L138.575 24.928C136.527 25.312 135.791 26.112 135.791 27.424C135.791 28.896 136.815 29.696 138.639 29.696ZM153.861 32C151.621 32 150.149 30.912 150.149 28.384V9.28H153.541V28.064C153.541 28.864 153.957 29.216 154.725 29.216H156.069V32H153.861Z" fill="#070A0D"/>
<defs>
<clipPath id="clip0_314_11143">
<rect width="20" height="20" fill="white" transform="translate(12 11)"/>
</clipPath>
</defs>
</svg>
