<svg width="146" height="42" viewBox="0 0 146 42" fill="none" xmlns="http://www.w3.org/2000/svg">
<rect width="146" height="42" rx="21" fill="white"/>
<g clip-path="url(#clip0_314_11125)">
<path d="M22 31C27.5228 31 32 26.5228 32 21C32 15.4772 27.5228 11 22 11C16.4772 11 12 15.4772 12 21C12 26.5228 16.4772 31 22 31Z" fill="#F0F0F0"/>
<path d="M32.0003 21.0001C32.0003 16.7004 29.2865 13.035 25.4785 11.6221V30.3781C29.2865 28.9652 32.0003 25.2997 32.0003 21.0001Z" fill="#D80027"/>
<path d="M12 21.0001C12 25.2997 14.7138 28.9652 18.5218 30.3781V11.6221C14.7138 13.035 12 16.7004 12 21.0001Z" fill="#0052B4"/>
</g>
<path d="M38.752 32V9.28H53.504V12.448H42.208V19.36H52.928V22.432H42.208V32H38.752ZM55.565 32V14.976H58.669L58.765 18.208C59.405 15.968 60.749 14.976 62.829 14.976H64.461V18.016H62.829C60.237 18.016 58.957 19.264 58.957 21.952V32H55.565ZM70.748 32.384C67.196 32.384 64.924 30.688 64.924 27.744C64.924 24.832 66.62 23.264 70.364 22.528L76.22 21.408C76.22 18.784 74.972 17.472 72.54 17.472C70.364 17.472 69.148 18.464 68.7 20.32L65.212 20.096C65.852 16.704 68.508 14.592 72.54 14.592C77.148 14.592 79.612 17.184 79.612 21.6V28.224C79.612 29.056 79.868 29.312 80.508 29.312H81.116V32C80.892 32.064 80.38 32.096 79.868 32.096C77.916 32.096 76.764 31.36 76.508 29.376C75.644 31.168 73.404 32.384 70.748 32.384ZM71.292 29.696C74.364 29.696 76.22 27.776 76.22 25.056V23.968L71.228 24.928C69.18 25.312 68.444 26.112 68.444 27.424C68.444 28.896 69.468 29.696 71.292 29.696ZM83.02 32V14.976H86.124L86.188 17.952C87.084 15.616 89.036 14.592 91.372 14.592C95.18 14.592 97.132 17.344 97.132 21.056V32H93.74V22.08C93.74 19.072 92.812 17.44 90.444 17.44C88.044 17.44 86.412 19.072 86.412 22.08V32H83.02ZM107.599 32.384C102.703 32.384 99.5352 28.864 99.5352 23.488C99.5352 18.112 102.703 14.592 107.599 14.592C111.727 14.592 114.639 16.832 115.215 20.768L111.663 20.96C111.311 18.752 109.743 17.536 107.599 17.536C104.719 17.536 103.055 19.744 103.055 23.488C103.055 27.232 104.719 29.44 107.599 29.44C109.775 29.44 111.343 28.224 111.663 25.76L115.215 25.952C114.671 29.856 111.759 32.384 107.599 32.384ZM124.358 32.384C119.398 32.384 116.294 28.864 116.294 23.488C116.294 18.112 119.398 14.592 124.262 14.592C128.902 14.592 132.038 17.888 132.038 23.616V24.48H119.814C119.974 27.808 121.67 29.472 124.39 29.472C126.374 29.472 127.718 28.48 128.262 26.88L131.782 27.104C130.886 30.272 128.102 32.384 124.358 32.384ZM119.814 21.92H128.454C128.23 18.912 126.566 17.472 124.262 17.472C121.83 17.472 120.198 19.04 119.814 21.92Z" fill="#070A0D"/>
<defs>
<clipPath id="clip0_314_11125">
<rect width="20" height="20" fill="white" transform="translate(12 11)"/>
</clipPath>
</defs>
</svg>
