<svg width="109" height="42" viewBox="0 0 109 42" fill="none" xmlns="http://www.w3.org/2000/svg">
<rect width="109" height="42" rx="21" fill="white"/>
<g clip-path="url(#clip0_314_11117)">
<path d="M22 31C27.5228 31 32 26.5228 32 21C32 15.4772 27.5228 11 22 11C16.4772 11 12 15.4772 12 21C12 26.5228 16.4772 31 22 31Z" fill="#F0F0F0"/>
<path d="M31.9998 21.0001C31.9998 16.7004 29.286 13.035 25.478 11.6221V30.3781C29.286 28.9652 31.9998 25.2997 31.9998 21.0001Z" fill="#D80027"/>
<path d="M12 21.0001C12 25.2997 14.7137 28.9652 18.5218 30.3781V11.6221C14.7137 13.035 12 16.7004 12 21.0001Z" fill="#6DA544"/>
</g>
<path d="M38.752 32V9.28H42.208V32H38.752ZM51.7805 32C48.5485 32 47.0445 30.592 47.0445 27.392V17.76H44.4525V14.976H47.0445V10.976H50.4365V14.976H54.9485V17.76H50.4365V27.136C50.4365 28.736 51.1085 29.216 52.5165 29.216H54.9485V32H51.7805ZM61.9043 32.384C58.3523 32.384 56.0803 30.688 56.0803 27.744C56.0803 24.832 57.7763 23.264 61.5203 22.528L67.3763 21.408C67.3763 18.784 66.1283 17.472 63.6962 17.472C61.5203 17.472 60.3043 18.464 59.8563 20.32L56.3683 20.096C57.0082 16.704 59.6643 14.592 63.6962 14.592C68.3043 14.592 70.7683 17.184 70.7683 21.6V28.224C70.7683 29.056 71.0243 29.312 71.6643 29.312H72.2723V32C72.0483 32.064 71.5363 32.096 71.0243 32.096C69.0723 32.096 67.9203 31.36 67.6643 29.376C66.8003 31.168 64.5603 32.384 61.9043 32.384ZM62.4483 29.696C65.5203 29.696 67.3763 27.776 67.3763 25.056V23.968L62.3843 24.928C60.3363 25.312 59.6003 26.112 59.6003 27.424C59.6003 28.896 60.6243 29.696 62.4483 29.696ZM77.6695 32C75.4295 32 73.9575 30.912 73.9575 28.384V9.28H77.3495V28.064C77.3495 28.864 77.7655 29.216 78.5335 29.216H79.8775V32H77.6695ZM82.1137 36.8V34.016H84.1937C85.3458 34.016 85.7938 33.696 86.1137 32.896L86.6578 31.488H85.6018L79.4577 14.976H83.0417L87.7137 28.352L92.1618 14.976H95.7778L88.9938 33.984C88.2898 35.936 87.0738 36.8 84.6737 36.8H82.1137Z" fill="#070A0D"/>
<defs>
<clipPath id="clip0_314_11117">
<rect width="20" height="20" fill="white" transform="translate(12 11)"/>
</clipPath>
</defs>
</svg>
