<svg width="223" height="42" viewBox="0 0 223 42" fill="none" xmlns="http://www.w3.org/2000/svg">
<rect width="223" height="42" rx="21" fill="white"/>
<g clip-path="url(#clip0_314_11146)">
<path d="M22 31C27.5228 31 32 26.5228 32 21C32 15.4772 27.5228 11 22 11C16.4772 11 12 15.4772 12 21C12 26.5228 16.4772 31 22 31Z" fill="#F0F0F0"/>
<path d="M22.0001 11C17.7004 11 14.035 13.7137 12.6221 17.5218H31.3781C29.9652 13.7137 26.2997 11 22.0001 11Z" fill="#A2001D"/>
<path d="M22.0001 31C26.2997 31 29.9652 28.2863 31.3781 24.4783H12.6221C14.035 28.2863 17.7004 31 22.0001 31Z" fill="#0052B4"/>
</g>
<path d="M38.752 32V9.28H43.136L53.632 27.808V9.28H57.088V32H52.544L42.208 13.888V32H38.752ZM67.9793 32.384C63.0193 32.384 59.9153 28.864 59.9153 23.488C59.9153 18.112 63.0193 14.592 67.8833 14.592C72.5233 14.592 75.6593 17.888 75.6593 23.616V24.48H63.4353C63.5953 27.808 65.2913 29.472 68.0113 29.472C69.9953 29.472 71.3393 28.48 71.8833 26.88L75.4033 27.104C74.5073 30.272 71.7233 32.384 67.9793 32.384ZM63.4353 21.92H72.0753C71.8513 18.912 70.1873 17.472 67.8833 17.472C65.4513 17.472 63.8193 19.04 63.4353 21.92ZM84.0393 32C80.8073 32 79.3033 30.592 79.3033 27.392V17.76H76.7113V14.976H79.3033V10.976H82.6953V14.976H87.2073V17.76H82.6953V27.136C82.6953 28.736 83.3673 29.216 84.7753 29.216H87.2073V32H84.0393ZM89.4887 32V9.28H92.8807V17.44C93.7767 15.488 95.6327 14.592 97.8727 14.592C101.585 14.592 103.601 17.248 103.601 21.056V32H100.209V21.952C100.209 18.912 99.1527 17.44 96.9767 17.44C94.4807 17.44 92.8807 19.04 92.8807 22.016V32H89.4887ZM114.068 32.384C109.108 32.384 106.004 28.864 106.004 23.488C106.004 18.112 109.108 14.592 113.972 14.592C118.612 14.592 121.748 17.888 121.748 23.616V24.48H109.524C109.684 27.808 111.38 29.472 114.1 29.472C116.084 29.472 117.428 28.48 117.972 26.88L121.492 27.104C120.596 30.272 117.812 32.384 114.068 32.384ZM109.524 21.92H118.164C117.94 18.912 116.276 17.472 113.972 17.472C111.54 17.472 109.908 19.04 109.524 21.92ZM124.225 32V14.976H127.329L127.425 18.208C128.065 15.968 129.409 14.976 131.489 14.976H133.121V18.016H131.489C128.897 18.016 127.617 19.264 127.617 21.952V32H124.225ZM138.664 32C136.424 32 134.952 30.912 134.952 28.384V9.28H138.344V28.064C138.344 28.864 138.76 29.216 139.528 29.216H140.872V32H138.664ZM147.76 32.384C144.208 32.384 141.936 30.688 141.936 27.744C141.936 24.832 143.632 23.264 147.376 22.528L153.232 21.408C153.232 18.784 151.984 17.472 149.552 17.472C147.376 17.472 146.16 18.464 145.712 20.32L142.224 20.096C142.864 16.704 145.52 14.592 149.552 14.592C154.16 14.592 156.625 17.184 156.625 21.6V28.224C156.625 29.056 156.88 29.312 157.521 29.312H158.128V32C157.904 32.064 157.392 32.096 156.88 32.096C154.928 32.096 153.776 31.36 153.52 29.376C152.656 31.168 150.416 32.384 147.76 32.384ZM148.304 29.696C151.376 29.696 153.232 27.776 153.232 25.056V23.968L148.24 24.928C146.192 25.312 145.456 26.112 145.456 27.424C145.456 28.896 146.48 29.696 148.304 29.696ZM160.032 32V14.976H163.136L163.201 17.952C164.096 15.616 166.049 14.592 168.385 14.592C172.193 14.592 174.145 17.344 174.145 21.056V32H170.753V22.08C170.753 19.072 169.825 17.44 167.457 17.44C165.056 17.44 163.424 19.072 163.424 22.08V32H160.032ZM183.652 32.384C179.268 32.384 176.548 28.96 176.548 23.488C176.548 18.048 179.3 14.592 183.652 14.592C185.988 14.592 187.94 15.616 188.868 17.376V9.28H192.26V32H189.092L188.996 29.44C188.036 31.296 186.02 32.384 183.652 32.384ZM184.548 29.44C187.332 29.44 188.868 27.232 188.868 23.488C188.868 19.712 187.332 17.536 184.548 17.536C181.828 17.536 180.068 19.776 180.068 23.488C180.068 27.136 181.828 29.44 184.548 29.44ZM202.36 32.384C197.56 32.384 195 29.984 194.744 26.624L198.232 26.464C198.552 28.352 199.768 29.536 202.36 29.536C204.472 29.536 205.816 28.896 205.816 27.392C205.816 26.144 205.176 25.6 201.784 25.024C196.728 24.128 195.16 22.656 195.16 19.872C195.16 16.768 197.528 14.592 201.944 14.592C206.328 14.592 208.6 17.088 209.08 20.192L205.592 20.384C205.272 18.624 204.024 17.44 201.912 17.44C199.736 17.44 198.68 18.4 198.68 19.744C198.68 21.248 199.672 21.856 202.456 22.304C207.768 23.168 209.336 24.576 209.336 27.36C209.336 30.56 206.424 32.384 202.36 32.384Z" fill="#070A0D"/>
<defs>
<clipPath id="clip0_314_11146">
<rect width="20" height="20" fill="white" transform="translate(12 11)"/>
</clipPath>
</defs>
</svg>
