<svg width="130" height="42" viewBox="0 0 130 42" fill="none" xmlns="http://www.w3.org/2000/svg">
<rect width="130" height="42" rx="21" fill="white"/>
<g clip-path="url(#clip0_314_11131)">
<path d="M12 20.9999C12 22.2231 12.22 23.3948 12.622 24.4782L22 25.3477L31.378 24.4782C31.78 23.3948 32 22.2231 32 20.9999C32 19.7767 31.78 18.605 31.378 17.5217L22 16.6521L12.622 17.5217C12.22 18.605 12 19.7767 12 20.9999V20.9999Z" fill="#FFDA44"/>
<path d="M31.3781 17.5218C29.9652 13.7138 26.2997 11 22.0001 11C17.7004 11 14.035 13.7138 12.6221 17.5218H31.3781Z" fill="#D80027"/>
<path d="M12.6221 24.4783C14.035 28.2862 17.7004 31 22.0001 31C26.2997 31 29.9652 28.2862 31.3781 24.4783H12.6221Z" fill="#D80027"/>
</g>
<path d="M46.944 32.512C41.504 32.512 38.112 29.344 37.728 24.672L41.28 24.448C41.696 27.616 43.616 29.376 47.008 29.376C49.92 29.376 51.648 28.256 51.648 26.112C51.648 24.192 50.656 23.008 45.632 21.792C40.192 20.48 38.208 18.912 38.208 15.36C38.208 11.456 41.184 8.768 46.08 8.768C51.264 8.768 54.24 11.872 54.752 16.16L51.2 16.352C50.88 13.728 49.12 11.904 46.016 11.904C43.392 11.904 41.76 13.248 41.76 15.232C41.76 17.216 42.88 17.952 47.296 19.008C53.184 20.384 55.2 22.592 55.2 25.92C55.2 29.984 51.84 32.512 46.944 32.512ZM58.3775 36.8V14.976H61.5775L61.6415 17.568C62.6335 15.616 64.5215 14.592 66.7935 14.592C71.7855 14.592 74.0895 18.688 74.0895 23.488C74.0895 28.288 71.7535 32.384 66.7935 32.384C64.6175 32.384 62.6975 31.36 61.7695 29.696V36.8H58.3775ZM66.1855 29.44C68.9055 29.44 70.5695 27.232 70.5695 23.488C70.5695 19.744 68.9055 17.536 66.1855 17.536C63.4655 17.536 61.7695 19.552 61.7695 23.488C61.7695 27.424 63.4335 29.44 66.1855 29.44ZM81.6855 32.384C78.1335 32.384 75.8615 30.688 75.8615 27.744C75.8615 24.832 77.5575 23.264 81.3015 22.528L87.1575 21.408C87.1575 18.784 85.9095 17.472 83.4775 17.472C81.3015 17.472 80.0855 18.464 79.6375 20.32L76.1495 20.096C76.7895 16.704 79.4455 14.592 83.4775 14.592C88.0855 14.592 90.5495 17.184 90.5495 21.6V28.224C90.5495 29.056 90.8055 29.312 91.4455 29.312H92.0535V32C91.8295 32.064 91.3175 32.096 90.8055 32.096C88.8535 32.096 87.7015 31.36 87.4455 29.376C86.5815 31.168 84.3415 32.384 81.6855 32.384ZM82.2295 29.696C85.3015 29.696 87.1575 27.776 87.1575 25.056V23.968L82.1655 24.928C80.1175 25.312 79.3815 26.112 79.3815 27.424C79.3815 28.896 80.4055 29.696 82.2295 29.696ZM93.7372 12.512V9.12H97.2572V12.512H93.7372ZM93.8012 32V14.976H97.1932V32H93.8012ZM101.31 32V14.976H104.414L104.478 17.952C105.374 15.616 107.326 14.592 109.662 14.592C113.47 14.592 115.422 17.344 115.422 21.056V32H112.03V22.08C112.03 19.072 111.102 17.44 108.734 17.44C106.334 17.44 104.702 19.072 104.702 22.08V32H101.31Z" fill="#070A0D"/>
<defs>
<clipPath id="clip0_314_11131">
<rect width="20" height="20" fill="white" transform="translate(12 11)"/>
</clipPath>
</defs>
</svg>
