<svg width="164" height="42" viewBox="0 0 164 42" fill="none" xmlns="http://www.w3.org/2000/svg">
<rect width="164" height="42" rx="21" fill="white"/>
<g clip-path="url(#clip0_314_11161)">
<path d="M22 31C27.5228 31 32 26.5228 32 21C32 15.4772 27.5228 11 22 11C16.4772 11 12 15.4772 12 21C12 26.5228 16.4772 31 22 31Z" fill="#FFDA44"/>
<path d="M19.8262 19.6957H31.9154C31.2763 14.7891 27.0808 11 22.0001 11C21.2534 11 20.5261 11.0825 19.8262 11.2377V19.6957H19.8262Z" fill="#0052B4"/>
<path d="M17.2177 19.6955V12.2158C14.4718 13.714 12.5062 16.4621 12.085 19.6956H17.2177V19.6955Z" fill="#0052B4"/>
<path d="M17.2177 22.3044H12.085C12.5062 25.5379 14.4718 28.286 17.2177 29.7842L17.2177 22.3044Z" fill="#0052B4"/>
<path d="M19.8262 22.3045V30.7624C20.5261 30.9176 21.2534 31.0001 22.0001 31.0001C27.0808 31.0001 31.2763 27.211 31.9154 22.3044H19.8262V22.3045Z" fill="#0052B4"/>
</g>
<path d="M46.944 32.512C41.504 32.512 38.112 29.344 37.728 24.672L41.28 24.448C41.696 27.616 43.616 29.376 47.008 29.376C49.92 29.376 51.648 28.256 51.648 26.112C51.648 24.192 50.656 23.008 45.632 21.792C40.192 20.48 38.208 18.912 38.208 15.36C38.208 11.456 41.184 8.768 46.08 8.768C51.264 8.768 54.24 11.872 54.752 16.16L51.2 16.352C50.88 13.728 49.12 11.904 46.016 11.904C43.392 11.904 41.76 13.248 41.76 15.232C41.76 17.216 42.88 17.952 47.296 19.008C53.184 20.384 55.2 22.592 55.2 25.92C55.2 29.984 51.84 32.512 46.944 32.512ZM61.3343 32L56.1503 14.976H59.7023L63.3503 28.288L67.0943 14.976H70.2943L74.0383 28.288L77.7183 14.976H81.2703L76.0863 32H72.2783L68.6943 19.84L65.1103 32H61.3343ZM89.5505 32.384C84.5905 32.384 81.4865 28.864 81.4865 23.488C81.4865 18.112 84.5905 14.592 89.4545 14.592C94.0945 14.592 97.2305 17.888 97.2305 23.616V24.48H85.0065C85.1665 27.808 86.8625 29.472 89.5825 29.472C91.5665 29.472 92.9105 28.48 93.4545 26.88L96.9745 27.104C96.0785 30.272 93.2945 32.384 89.5505 32.384ZM85.0065 21.92H93.6465C93.4225 18.912 91.7585 17.472 89.4545 17.472C87.0225 17.472 85.3905 19.04 85.0065 21.92ZM105.755 32.384C101.371 32.384 98.6515 28.96 98.6515 23.488C98.6515 18.048 101.403 14.592 105.755 14.592C108.091 14.592 110.043 15.616 110.971 17.376V9.28H114.364V32H111.195L111.099 29.44C110.139 31.296 108.123 32.384 105.755 32.384ZM106.651 29.44C109.435 29.44 110.971 27.232 110.971 23.488C110.971 19.712 109.435 17.536 106.651 17.536C103.931 17.536 102.171 19.776 102.171 23.488C102.171 27.136 103.931 29.44 106.651 29.44ZM124.912 32.384C119.952 32.384 116.848 28.864 116.848 23.488C116.848 18.112 119.952 14.592 124.816 14.592C129.456 14.592 132.592 17.888 132.592 23.616V24.48H120.368C120.528 27.808 122.224 29.472 124.944 29.472C126.928 29.472 128.272 28.48 128.816 26.88L132.336 27.104C131.44 30.272 128.656 32.384 124.912 32.384ZM120.368 21.92H129.008C128.784 18.912 127.12 17.472 124.816 17.472C122.384 17.472 120.752 19.04 120.368 21.92ZM135.069 32V14.976H138.173L138.237 17.952C139.133 15.616 141.085 14.592 143.421 14.592C147.229 14.592 149.181 17.344 149.181 21.056V32H145.789V22.08C145.789 19.072 144.861 17.44 142.493 17.44C140.093 17.44 138.461 19.072 138.461 22.08V32H135.069Z" fill="#070A0D"/>
<defs>
<clipPath id="clip0_314_11161">
<rect width="20" height="20" fill="white" transform="translate(12 11)"/>
</clipPath>
</defs>
</svg>
