<svg width="177" height="42" viewBox="0 0 177 42" fill="none" xmlns="http://www.w3.org/2000/svg">
<rect width="177" height="42" rx="21" fill="white"/>
<g clip-path="url(#clip0_314_11134)">
<path d="M12.6221 24.4782C14.035 28.2861 17.7004 30.9999 22.0001 30.9999C26.2997 30.9999 29.9652 28.2861 31.3781 24.4782L22.0001 23.6086L12.6221 24.4782Z" fill="#FFDA44"/>
<path d="M22.0001 11C17.7004 11 14.035 13.7137 12.6221 17.5218L22.0001 18.3913L31.3781 17.5217C29.9652 13.7137 26.2997 11 22.0001 11Z" fill="black"/>
<path d="M12.622 17.5217C12.22 18.605 12 19.7768 12 21C12 22.2232 12.22 23.3949 12.622 24.4782H31.378C31.78 23.3949 32 22.2232 32 21C32 19.7768 31.78 18.605 31.378 17.5217H12.622Z" fill="#D80027"/>
</g>
<path d="M47.68 32.512C41.216 32.512 37.408 27.584 37.408 20.672C37.408 13.856 41.28 8.768 47.808 8.768C53.408 8.768 56.288 12 57.184 16.416L53.568 16.608C53.024 13.824 51.392 11.936 47.808 11.936C43.072 11.936 40.992 15.904 40.992 20.672C40.992 25.632 43.104 29.344 47.84 29.344C51.552 29.344 53.824 26.656 53.952 23.328H47.872V20.416H57.248V32H54.88L54.72 28.384C53.6 30.848 50.816 32.512 47.68 32.512ZM67.573 32.384C62.613 32.384 59.509 28.864 59.509 23.488C59.509 18.112 62.613 14.592 67.477 14.592C72.117 14.592 75.253 17.888 75.253 23.616V24.48H63.029C63.189 27.808 64.885 29.472 67.605 29.472C69.589 29.472 70.933 28.48 71.477 26.88L74.997 27.104C74.101 30.272 71.317 32.384 67.573 32.384ZM63.029 21.92H71.669C71.445 18.912 69.781 17.472 67.477 17.472C65.045 17.472 63.413 19.04 63.029 21.92ZM77.73 32V14.976H80.834L80.93 18.208C81.57 15.968 82.914 14.976 84.994 14.976H86.626V18.016H84.994C82.402 18.016 81.122 19.264 81.122 21.952V32H77.73ZM88.2075 32V14.976H91.3115L91.3755 17.888C92.2075 15.808 93.9675 14.592 96.1115 14.592C98.6395 14.592 100.399 15.904 101.135 18.112C101.903 15.84 103.632 14.592 106.063 14.592C109.648 14.592 111.695 16.896 111.695 21.056V32H108.303V21.888C108.303 18.944 107.247 17.44 105.072 17.44C102.927 17.44 101.551 19.136 101.551 22.016V32H98.3195V22.016C98.3195 19.136 97.4235 17.44 95.1515 17.44C92.9755 17.44 91.5995 19.168 91.5995 22.016V32H88.2075ZM119.984 32.384C116.432 32.384 114.16 30.688 114.16 27.744C114.16 24.832 115.856 23.264 119.6 22.528L125.456 21.408C125.456 18.784 124.208 17.472 121.776 17.472C119.6 17.472 118.384 18.464 117.936 20.32L114.448 20.096C115.088 16.704 117.744 14.592 121.776 14.592C126.384 14.592 128.848 17.184 128.848 21.6V28.224C128.848 29.056 129.104 29.312 129.744 29.312H130.352V32C130.128 32.064 129.616 32.096 129.104 32.096C127.152 32.096 126 31.36 125.744 29.376C124.88 31.168 122.64 32.384 119.984 32.384ZM120.528 29.696C123.6 29.696 125.456 27.776 125.456 25.056V23.968L120.464 24.928C118.416 25.312 117.68 26.112 117.68 27.424C117.68 28.896 118.704 29.696 120.528 29.696ZM132.256 32V14.976H135.36L135.424 17.952C136.32 15.616 138.272 14.592 140.608 14.592C144.416 14.592 146.368 17.344 146.368 21.056V32H142.976V22.08C142.976 19.072 142.048 17.44 139.68 17.44C137.28 17.44 135.648 19.072 135.648 22.08V32H132.256ZM150.1 36.8V34.016H152.18C153.332 34.016 153.78 33.696 154.1 32.896L154.644 31.488H153.588L147.444 14.976H151.028L155.7 28.352L160.148 14.976H163.764L156.98 33.984C156.276 35.936 155.06 36.8 152.66 36.8H150.1Z" fill="#070A0D"/>
<defs>
<clipPath id="clip0_314_11134">
<rect width="20" height="20" fill="white" transform="translate(12 11)"/>
</clipPath>
</defs>
</svg>
