<svg width="32" height="32" viewBox="0 0 32 32" fill="none" xmlns="http://www.w3.org/2000/svg">
<path d="M16 32C24.8366 32 32 24.8366 32 16C32 7.16344 24.8366 0 16 0C7.16344 0 0 7.16344 0 16C0 24.8366 7.16344 32 16 32Z" fill="#FFCA0B"/>
<path d="M20.8938 16.8228H16.7293L18.273 12.1921C18.4166 11.6177 17.9859 11.0791 17.4474 11.0791H12.2778C11.8467 11.0791 11.4522 11.4023 11.416 11.833L10.2672 20.4493C10.1955 20.9876 10.5904 21.4186 11.129 21.4186H15.3651L13.7139 28.4189C13.6061 28.9575 14.001 29.4602 14.5395 29.4602C14.8627 29.4602 15.1498 29.3165 15.2931 29.0295L21.6118 18.1153C21.9709 17.5767 21.5398 16.8228 20.8938 16.8228Z" fill="#FDAB00"/>
<path d="M20.883 12.6992H16.7185L18.2622 8.06816C18.4059 7.49376 17.9752 6.9552 17.4366 6.9552H12.267C11.836 6.9552 11.4414 7.2784 11.4053 7.70912L10.2565 16.3251C10.1848 16.8637 10.5797 17.2947 11.1182 17.2947H15.3544L13.7032 24.295C13.5953 24.8336 13.9902 25.3363 14.5288 25.3363C14.852 25.3363 15.139 25.1923 15.2824 24.9053L21.6011 13.9917C21.9601 13.4531 21.5291 12.6992 20.883 12.6992Z" fill="url(#paint0_radial_79_4679)"/>
<path fill-rule="evenodd" clip-rule="evenodd" d="M16.2366 13.0464L17.9281 7.97248C18.0104 7.6128 17.7361 7.30208 17.4363 7.30208H12.2667C11.9937 7.30208 11.7701 7.50848 11.7509 7.73792L11.7502 7.74624L10.6001 16.3712C10.5573 16.6931 10.7806 16.9472 11.1179 16.9472H15.7925L14.0421 24.3683C13.9781 24.7027 14.2232 24.9891 14.5285 24.9891C14.748 24.9891 14.8984 24.8966 14.9717 24.7501L14.9765 24.7405L21.3061 13.8083L21.3118 13.799C21.5064 13.5078 21.2715 13.0464 20.8827 13.0464H16.2366ZM13.7025 24.295L15.3537 17.2944H11.1182C10.5797 17.2944 10.1848 16.8637 10.2565 16.3251L11.4053 7.70912C11.4411 7.27808 11.836 6.9552 12.267 6.9552H17.4366C17.9752 6.9552 18.4059 7.49376 18.2622 8.06816L16.7185 12.6992H20.883C21.5294 12.6992 21.9601 13.4531 21.6011 13.9917L15.2824 24.9053C15.1384 25.1926 14.8513 25.3363 14.5281 25.3363C13.9899 25.3363 13.595 24.8336 13.7025 24.295Z" fill="url(#paint1_linear_79_4679)"/>
<defs>
<radialGradient id="paint0_radial_79_4679" cx="0" cy="0" r="1" gradientUnits="userSpaceOnUse" gradientTransform="translate(8.21642 17.9304) rotate(-22.557) scale(18.0795 11.2948)">
<stop stop-color="#FFEFBC"/>
<stop offset="1" stop-color="white"/>
</radialGradient>
<linearGradient id="paint1_linear_79_4679" x1="15.9893" y1="6.9552" x2="15.9893" y2="25.3363" gradientUnits="userSpaceOnUse">
<stop stop-color="white"/>
<stop offset="1" stop-color="white" stop-opacity="0"/>
</linearGradient>
</defs>
</svg>
