<svg width="32" height="32" viewBox="0 0 32 32" fill="none" xmlns="http://www.w3.org/2000/svg">
<path d="M32 16C32 24.8365 24.8365 32 16 32C7.16352 32 0 24.8365 0 16C0 7.16352 7.16352 0 16 0C24.8365 0 32 7.16352 32 16Z" fill="#FFC737"/>
<path d="M21.7846 12.2394C20.408 11.5514 18.5805 11.1875 16.5 11.1875C14.4195 11.1875 12.592 11.5514 11.2154 12.2394C9.83879 12.9273 9.0625 13.8955 9.0625 14.9062V18.0938C9.0625 19.1045 9.84742 20.076 11.2154 20.7606C12.5834 21.4453 14.4195 21.8125 16.5 21.8125C18.5805 21.8125 20.408 21.4486 21.7846 20.7606C23.1612 20.0727 23.9375 19.1045 23.9375 18.0938V14.9062C23.9375 13.8955 23.1526 12.924 21.7846 12.2394ZM15.9688 18.6144V20.7394C14.707 20.6982 13.6445 20.5123 12.7812 20.242V18.1635C13.8219 18.4407 14.892 18.5926 15.9688 18.6157V18.6144ZM17.0312 18.6144C18.108 18.5912 19.1781 18.4394 20.2188 18.1621V20.2413C19.3555 20.5116 18.293 20.6975 17.0312 20.7387V18.6144ZM10.125 18.0938V16.8672C10.4593 17.1447 10.8253 17.3817 11.2154 17.5731C11.3768 17.6535 11.5474 17.7292 11.7188 17.8009V19.8203C10.6675 19.2997 10.125 18.6443 10.125 18.0938ZM21.2812 19.8203V17.8009C21.4546 17.7292 21.6232 17.6535 21.7846 17.5731C22.1747 17.3817 22.5407 17.1447 22.875 16.8672V18.0938C22.875 18.6443 22.3325 19.2997 21.2812 19.8203Z" fill="#CE9F28"/>
<path d="M21.7846 11.2394C20.408 10.5514 18.5805 10.1875 16.5 10.1875C14.4195 10.1875 12.592 10.5514 11.2154 11.2394C9.83879 11.9273 9.0625 12.8955 9.0625 13.9062V17.0938C9.0625 18.1045 9.84742 19.076 11.2154 19.7606C12.5834 20.4453 14.4195 20.8125 16.5 20.8125C18.5805 20.8125 20.408 20.4486 21.7846 19.7606C23.1612 19.0727 23.9375 18.1045 23.9375 17.0938V13.9062C23.9375 12.8955 23.1526 11.924 21.7846 11.2394ZM15.9688 17.6144V19.7394C14.707 19.6982 13.6445 19.5123 12.7812 19.242V17.1635C13.8219 17.4407 14.892 17.5926 15.9688 17.6157V17.6144ZM17.0312 17.6144C18.108 17.5912 19.1781 17.4394 20.2188 17.1621V19.2413C19.3555 19.5116 18.293 19.6975 17.0312 19.7387V17.6144ZM10.125 17.0938V15.8672C10.4593 16.1447 10.8253 16.3817 11.2154 16.5731C11.3768 16.6535 11.5474 16.7292 11.7188 16.8009V18.8203C10.6675 18.2997 10.125 17.6443 10.125 17.0938ZM21.2812 18.8203V16.8009C21.4546 16.7292 21.6232 16.6535 21.7846 16.5731C22.1747 16.3817 22.5407 16.1447 22.875 15.8672V17.0938C22.875 17.6443 22.3325 18.2997 21.2812 18.8203Z" fill="white"/>
</svg>
