<svg width="32" height="33" viewBox="0 0 32 33" fill="none" xmlns="http://www.w3.org/2000/svg">
<path d="M32 16.39C32 25.2265 24.8365 32.39 16 32.39C7.16352 32.39 0 25.2265 0 16.39C0 7.55353 7.16352 0.390015 16 0.390015C24.8365 0.390015 32 7.55353 32 16.39Z" fill="#8673FC"/>
<path d="M12.3196 8.87L10.5596 15.59H4.95965L4.63965 24.23L29.5996 24.55L28.6396 15.91L21.2796 15.59L19.8396 8.87H12.3196Z" fill="#7862FF"/>
<path d="M11.206 16.1362H6.70842C6.30476 16.1362 5.97754 16.4635 5.97754 16.8671V21.3647C5.97754 21.7684 6.30476 22.0956 6.70842 22.0956H11.206C11.6097 22.0956 11.9369 21.7684 11.9369 21.3647V16.8671C11.9369 16.4635 11.6097 16.1362 11.206 16.1362Z" fill="#D7B7FE"/>
<path d="M11.3279 16.1362H6.5865C6.25018 16.1362 5.97754 16.4089 5.97754 16.7452V21.1945C5.97754 21.5308 6.25018 21.8034 6.5865 21.8034H11.3279C11.6643 21.8034 11.9369 21.5308 11.9369 21.1945V16.7452C11.9369 16.4089 11.6643 16.1362 11.3279 16.1362Z" fill="url(#paint0_radial_79_4743)"/>
<path d="M18.249 16.1362H13.7514C13.3477 16.1362 13.0205 16.4635 13.0205 16.8671V21.3647C13.0205 21.7684 13.3477 22.0956 13.7514 22.0956H18.249C18.6526 22.0956 18.9799 21.7684 18.9799 21.3647V16.8671C18.9799 16.4635 18.6526 16.1362 18.249 16.1362Z" fill="#D7B7FE"/>
<path d="M18.3709 16.1362H13.6295C13.2931 16.1362 13.0205 16.4089 13.0205 16.7452V21.1945C13.0205 21.5308 13.2931 21.8034 13.6295 21.8034H18.3709C18.7072 21.8034 18.9799 21.5308 18.9799 21.1945V16.7452C18.9799 16.4089 18.7072 16.1362 18.3709 16.1362Z" fill="url(#paint1_radial_79_4743)"/>
<path d="M25.292 16.1362H20.7944C20.3907 16.1362 20.0635 16.4635 20.0635 16.8671V21.3647C20.0635 21.7684 20.3907 22.0956 20.7944 22.0956H25.292C25.6956 22.0956 26.0228 21.7684 26.0228 21.3647V16.8671C26.0228 16.4635 25.6956 16.1362 25.292 16.1362Z" fill="#D7B7FE"/>
<path d="M25.4139 16.1362H20.6724C20.3361 16.1362 20.0635 16.4089 20.0635 16.7452V21.1945C20.0635 21.5308 20.3361 21.8034 20.6724 21.8034H25.4139C25.7502 21.8034 26.0228 21.5308 26.0228 21.1945V16.7452C26.0228 16.4089 25.7502 16.1362 25.4139 16.1362Z" fill="url(#paint2_radial_79_4743)"/>
<path d="M18.249 9.09338H13.7514C13.3477 9.09338 13.0205 9.42061 13.0205 9.82426V14.3219C13.0205 14.7255 13.3477 15.0527 13.7514 15.0527H18.249C18.6526 15.0527 18.9799 14.7255 18.9799 14.3219V9.82426C18.9799 9.42061 18.6526 9.09338 18.249 9.09338Z" fill="#D7B7FE"/>
<path d="M18.3709 9.09338H13.6295C13.2931 9.09338 13.0205 9.36602 13.0205 9.70234V14.1516C13.0205 14.4879 13.2931 14.7606 13.6295 14.7606H18.3709C18.7072 14.7606 18.9799 14.4879 18.9799 14.1516V9.70234C18.9799 9.36602 18.7072 9.09338 18.3709 9.09338Z" fill="url(#paint3_radial_79_4743)"/>
<path d="M16.6799 13.126C16.8383 13.126 16.9685 13.0204 17.0072 12.8828L17.525 11.0697C17.5285 11.0447 17.532 11.0166 17.532 10.9919C17.5321 10.9573 17.5253 10.9229 17.512 10.8909C17.4988 10.8588 17.4793 10.8297 17.4548 10.8052C17.4303 10.7807 17.4011 10.7612 17.3691 10.748C17.337 10.7347 17.3027 10.7279 17.268 10.7279C17.208 10.7279 17.1497 10.748 17.1024 10.785C17.0551 10.822 17.0216 10.8738 17.0072 10.9321L16.6411 12.4499L16.236 10.9075C16.2229 10.8559 16.1929 10.8102 16.1508 10.7776C16.1087 10.7451 16.0569 10.7276 16.0037 10.7279C15.9495 10.7269 15.8965 10.744 15.8531 10.7765C15.8098 10.8091 15.7785 10.8552 15.7643 10.9075L15.3592 12.4499L14.9896 10.9321C14.9755 10.8744 14.9427 10.823 14.8961 10.786C14.8496 10.749 14.7921 10.7286 14.7327 10.7279C14.6979 10.7276 14.6634 10.7341 14.6311 10.7473C14.5989 10.7604 14.5696 10.7798 14.545 10.8044C14.5204 10.829 14.5009 10.8582 14.4878 10.8904C14.4746 10.9226 14.468 10.9572 14.4683 10.9919C14.4683 11.0166 14.4719 11.0447 14.4754 11.0659L14.9967 12.8831C15.0351 13.0204 15.1656 13.1263 15.3205 13.1263C15.4789 13.1263 15.613 13.0169 15.6482 12.8691L16.0002 11.4886L16.356 12.8691C16.3912 13.0169 16.5215 13.126 16.6799 13.126ZM10.0523 19.8182L9.36914 18.0435C9.33692 17.9605 9.28034 17.8891 9.20684 17.8389C9.13333 17.7886 9.04634 17.7618 8.9573 17.7619C8.76722 17.7619 8.6085 17.8777 8.54514 18.0435L7.85874 19.8182C7.85138 19.8428 7.84082 19.8745 7.84082 19.9062C7.84082 20.047 7.95378 20.1596 8.09458 20.1596C8.20338 20.1596 8.30226 20.0892 8.33394 19.9907L8.42898 19.7161H9.48562L9.58066 19.9907C9.61234 20.0892 9.70738 20.1596 9.8165 20.1596C9.9573 20.1596 10.0735 20.047 10.0735 19.9062C10.0723 19.8757 10.0651 19.8458 10.0523 19.8182ZM8.58386 19.2828L8.9573 18.2195L9.33042 19.2828H8.58386ZM15.1691 19.9519C15.3803 20.0998 15.6517 20.1878 15.9967 20.1878C16.6306 20.1878 16.9371 19.8639 16.9371 19.4342C16.9371 18.9132 16.444 18.7971 16.0565 18.7087C15.7855 18.6454 15.5883 18.5961 15.5883 18.4377C15.5883 18.2969 15.708 18.1983 15.9685 18.1983C16.1339 18.1983 16.3205 18.2476 16.5003 18.3497C16.532 18.3708 16.5743 18.3849 16.62 18.3849C16.6809 18.3837 16.7389 18.3587 16.7817 18.3153C16.8244 18.2719 16.8485 18.2135 16.8488 18.1526C16.8487 18.1123 16.8379 18.0728 16.8175 18.0381C16.7971 18.0034 16.7678 17.9748 16.7327 17.9551C16.5117 17.8257 16.2597 17.7588 16.0037 17.7615C15.4155 17.7615 15.0776 18.0783 15.0776 18.4694C15.0776 18.9942 15.5704 19.0998 15.9544 19.1878C16.2258 19.2511 16.4299 19.311 16.4299 19.487C16.4299 19.6211 16.2962 19.7513 16.0213 19.7513C15.8094 19.7527 15.6024 19.6874 15.4296 19.5647C15.3907 19.5367 15.3438 19.5219 15.2959 19.5225C15.2339 19.5233 15.1747 19.5485 15.1312 19.5926C15.0877 19.6368 15.0634 19.6964 15.0635 19.7583C15.0635 19.8393 15.1058 19.9097 15.1691 19.9519ZM22.2127 20.1878H22.8815C23.6248 20.1878 24.1407 19.7183 24.1407 19.0035C24.1407 18.2886 23.6248 17.8153 22.8815 17.8153H22.2127C22.0421 17.8153 21.9461 17.9113 21.9461 18.0822V19.9177C21.9461 20.0918 22.0421 20.1878 22.2127 20.1878ZM22.4511 19.743V18.2601H22.8815C23.3688 18.2601 23.6248 18.5836 23.6248 19.0035C23.6248 19.4054 23.3509 19.7433 22.8815 19.7433L22.4511 19.743Z" fill="#715BFE"/>
<defs>
<radialGradient id="paint0_radial_79_4743" cx="0" cy="0" r="1" gradientUnits="userSpaceOnUse" gradientTransform="translate(10.4921 16.759) rotate(120.129) scale(6.71968 8.45072)">
<stop stop-color="white"/>
<stop offset="1" stop-color="#F0E3FF"/>
</radialGradient>
<radialGradient id="paint1_radial_79_4743" cx="0" cy="0" r="1" gradientUnits="userSpaceOnUse" gradientTransform="translate(17.5351 16.759) rotate(120.129) scale(6.71968 8.45072)">
<stop stop-color="white"/>
<stop offset="1" stop-color="#F0E3FF"/>
</radialGradient>
<radialGradient id="paint2_radial_79_4743" cx="0" cy="0" r="1" gradientUnits="userSpaceOnUse" gradientTransform="translate(24.578 16.759) rotate(120.129) scale(6.71968 8.45072)">
<stop stop-color="white"/>
<stop offset="1" stop-color="#F0E3FF"/>
</radialGradient>
<radialGradient id="paint3_radial_79_4743" cx="0" cy="0" r="1" gradientUnits="userSpaceOnUse" gradientTransform="translate(17.5351 9.7161) rotate(120.129) scale(6.71968 8.45072)">
<stop stop-color="white"/>
<stop offset="1" stop-color="#F0E3FF"/>
</radialGradient>
</defs>
</svg>
