<svg width="32" height="32" viewBox="0 0 32 32" fill="none" xmlns="http://www.w3.org/2000/svg">
<path d="M32 16C32 24.8365 24.8365 32 16 32C7.16352 32 0 24.8365 0 16C0 7.16352 7.16352 0 16 0C24.8365 0 32 7.16352 32 16Z" fill="#00CA75"/>
<path d="M9.24118 18.8416C9.58934 19.1901 10.1116 19.1552 10.4604 18.8416L14.4306 14.6272V24.6583C14.4306 25.1111 14.8137 25.4941 15.2665 25.4941H16.381C16.8687 25.4941 17.2169 25.1111 17.2169 24.6583V14.6272L21.2226 18.8416C21.5708 19.1549 22.093 19.1898 22.4418 18.8416L23.2079 18.0752C23.5215 17.7616 23.5215 17.2045 23.2079 16.8912L16.4159 10.1344C16.1023 9.78625 15.5801 9.78625 15.2319 10.1344L8.47446 16.8912C8.16086 17.2048 8.16086 17.7271 8.47446 18.0752L9.24118 18.8416Z" fill="#009D5B"/>
<path d="M9.24118 17.1581C9.58934 17.5063 10.1116 17.4717 10.4604 17.1581L14.4306 12.9437V22.9745C14.4306 23.4273 14.8137 23.8103 15.2665 23.8103H16.381C16.8687 23.8103 17.2169 23.4273 17.2169 22.9745V12.9441L21.2226 17.1585C21.5708 17.4721 22.093 17.5066 22.4418 17.1585L23.2079 16.3921C23.5215 16.0785 23.5215 15.5217 23.2079 15.2081L16.4159 8.45094C16.1023 8.10246 15.5801 8.10246 15.2319 8.45094L8.47446 15.2077C8.16086 15.5213 8.16086 16.0436 8.47446 16.3917L9.24118 17.1581Z" fill="url(#paint0_radial_79_4709)"/>
<path fill-rule="evenodd" clip-rule="evenodd" d="M21.2223 17.1581C21.5705 17.4717 22.0927 17.5063 22.4415 17.1581L23.2076 16.3917C23.5212 16.0781 23.5212 15.5213 23.2076 15.2077L16.4159 8.45094C16.1023 8.10246 15.5801 8.10246 15.2319 8.45094L8.47446 15.2077C8.16086 15.5213 8.16086 16.0436 8.47446 16.3917L9.24086 17.1581C9.58902 17.5063 10.1113 17.4717 10.4601 17.1581L14.4303 12.9437V22.9745C14.4303 23.4273 14.8133 23.8103 15.2661 23.8103H16.3807C16.8684 23.8103 17.2165 23.4273 17.2165 22.9745V12.9441L21.2226 17.1585L21.2223 17.1581ZM10.3157 17.0097L14.6377 12.4221V22.9745C14.6377 23.313 14.9279 23.6036 15.2665 23.6036H16.381C16.7487 23.6036 17.0098 23.3188 17.0098 22.9745V12.4257L21.3666 17.0093C21.6463 17.2564 22.0386 17.2685 22.2953 17.0116L23.0613 16.2455C23.294 16.0129 23.294 15.5869 23.0617 15.3543L16.2658 8.59334L16.262 8.58886C16.0348 8.3367 15.6501 8.32485 15.3781 8.59686L8.62102 15.354C8.39318 15.5815 8.38198 15.9757 8.62486 16.2497L9.3871 17.0116C9.64374 17.2682 10.0357 17.2564 10.3151 17.0097H10.3157Z" fill="url(#paint1_linear_79_4709)"/>
<defs>
<radialGradient id="paint0_radial_79_4709" cx="0" cy="0" r="1" gradientUnits="userSpaceOnUse" gradientTransform="translate(18.4668 12.8081) rotate(40.1723) scale(25.0695 30.2923)">
<stop stop-color="white"/>
<stop offset="1" stop-color="white" stop-opacity="0.61"/>
</radialGradient>
<linearGradient id="paint1_linear_79_4709" x1="15.8412" y1="6.41766" x2="12.1362" y2="23.8103" gradientUnits="userSpaceOnUse">
<stop stop-color="#FBF9FF"/>
<stop offset="1" stop-color="#D4F2E6"/>
</linearGradient>
</defs>
</svg>
