<svg width="32" height="32" viewBox="0 0 32 32" fill="none" xmlns="http://www.w3.org/2000/svg">
<path d="M32 16C32 24.8365 24.8365 32 16 32C7.16352 32 0 24.8365 0 16C0 7.16352 7.16352 0 16 0C24.8365 0 32 7.16352 32 16Z" fill="#00CA75"/>
<path d="M24.2263 15.1625L17.3201 23.4918C17.2202 23.6124 17.0949 23.7093 16.9531 23.7755C16.8112 23.8418 16.6565 23.8758 16.4999 23.875C16.3439 23.8754 16.1896 23.8412 16.0483 23.775C15.907 23.7087 15.782 23.612 15.6825 23.4918L8.77358 15.1625C8.68264 15.0538 8.61488 14.9277 8.57446 14.792C8.53403 14.6562 8.5218 14.5136 8.5385 14.3729C8.55511 14.2319 8.59996 14.0956 8.67035 13.9723C8.74074 13.849 8.83524 13.7411 8.94822 13.655C11.1186 12.004 13.7729 11.1147 16.4999 11.125C19.227 11.1147 21.8812 12.004 24.0517 13.655C24.1646 13.7411 24.2591 13.849 24.3295 13.9723C24.3999 14.0956 24.4448 14.2319 24.4614 14.3729C24.4781 14.5136 24.4659 14.6562 24.4254 14.792C24.385 14.9277 24.3172 15.0538 24.2263 15.1625Z" fill="#06AE67"/>
<path d="M24.2263 14.1625L17.3201 22.4918C17.2202 22.6124 17.0949 22.7093 16.9531 22.7755C16.8112 22.8418 16.6565 22.8758 16.4999 22.875C16.3439 22.8754 16.1896 22.8412 16.0483 22.775C15.907 22.7087 15.782 22.612 15.6825 22.4918L8.77358 14.1625C8.68264 14.0538 8.61488 13.9277 8.57446 13.792C8.53403 13.6562 8.5218 13.5136 8.5385 13.3729C8.55511 13.2319 8.59996 13.0956 8.67035 12.9723C8.74074 12.849 8.83524 12.7411 8.94822 12.655C11.1186 11.004 13.7729 10.1147 16.4999 10.125C19.227 10.1147 21.8812 11.004 24.0517 12.655C24.1646 12.7411 24.2591 12.849 24.3295 12.9723C24.3999 13.0956 24.4448 13.2319 24.4614 13.3729C24.4781 13.5136 24.4659 13.6562 24.4254 13.792C24.385 13.9277 24.3172 14.0538 24.2263 14.1625Z" fill="white"/>
</svg>
