<svg width="32" height="33" viewBox="0 0 32 33" fill="none" xmlns="http://www.w3.org/2000/svg">
<path d="M16 32.39C24.8366 32.39 32 25.2266 32 16.39C32 7.55346 24.8366 0.390015 16 0.390015C7.16344 0.390015 0 7.55346 0 16.39C0 25.2266 7.16344 32.39 16 32.39Z" fill="#6C60F7"/>
<path d="M22.875 11.1875V18.0938C22.875 18.3755 22.7631 18.6458 22.5638 18.8451C22.3645 19.0443 22.0943 19.1562 21.8125 19.1562H15.4375V20.2188C15.4376 20.3239 15.4065 20.4267 15.3481 20.5141C15.2897 20.6016 15.2067 20.6697 15.1096 20.71C15.0125 20.7502 14.9056 20.7607 14.8025 20.7402C14.6994 20.7197 14.6047 20.669 14.5304 20.5946L12.9366 19.0009C12.8872 18.9515 12.8481 18.8929 12.8213 18.8284C12.7946 18.7639 12.7808 18.6948 12.7808 18.625C12.7808 18.5552 12.7946 18.4861 12.8213 18.4216C12.8481 18.3571 12.8872 18.2985 12.9366 18.2491L14.5304 16.6554C14.6047 16.581 14.6994 16.5303 14.8025 16.5098C14.9056 16.4893 15.0125 16.4998 15.1096 16.54C15.2067 16.5803 15.2897 16.6484 15.3481 16.7359C15.4065 16.8233 15.4376 16.9261 15.4375 17.0312V18.0938H21.8125V11.1875H14.375V11.7188C14.375 11.8596 14.319 11.9948 14.2194 12.0944C14.1198 12.194 13.9846 12.25 13.8438 12.25C13.7029 12.25 13.5677 12.194 13.4681 12.0944C13.3685 11.9948 13.3125 11.8596 13.3125 11.7188V11.1875C13.3125 10.9057 13.4244 10.6355 13.6237 10.4362C13.823 10.2369 14.0932 10.125 14.375 10.125H21.8125C22.0943 10.125 22.3645 10.2369 22.5638 10.4362C22.7631 10.6355 22.875 10.9057 22.875 11.1875ZM19.1562 20.75C19.0154 20.75 18.8802 20.806 18.7806 20.9056C18.681 21.0052 18.625 21.1404 18.625 21.2812V21.8125H11.1875V14.9062H17.5625V15.9688C17.5624 16.0739 17.5935 16.1767 17.6519 16.2641C17.7103 16.3516 17.7933 16.4197 17.8904 16.46C17.9875 16.5002 18.0944 16.5107 18.1975 16.4902C18.3006 16.4697 18.3953 16.419 18.4696 16.3446L20.0634 14.7509C20.1128 14.7015 20.1519 14.6429 20.1787 14.5784C20.2054 14.5139 20.2192 14.4448 20.2192 14.375C20.2192 14.3052 20.2054 14.2361 20.1787 14.1716C20.1519 14.1071 20.1128 14.0485 20.0634 13.9991L18.4696 12.4054C18.3953 12.331 18.3006 12.2803 18.1975 12.2598C18.0944 12.2393 17.9875 12.2498 17.8904 12.29C17.7933 12.3303 17.7103 12.3984 17.6519 12.4859C17.5935 12.5733 17.5624 12.6761 17.5625 12.7812V13.8438H11.1875C10.9057 13.8438 10.6355 13.9557 10.4362 14.1549C10.2369 14.3542 10.125 14.6245 10.125 14.9062V21.8125C10.125 22.0943 10.2369 22.3645 10.4362 22.5638C10.6355 22.7631 10.9057 22.875 11.1875 22.875H18.625C18.9068 22.875 19.177 22.7631 19.3763 22.5638C19.5756 22.3645 19.6875 22.0943 19.6875 21.8125V21.2812C19.6875 21.1404 19.6315 21.0052 19.5319 20.9056C19.4323 20.806 19.2971 20.75 19.1562 20.75Z" fill="#40398C"/>
<path d="M22.875 10.1875V17.0938C22.875 17.3755 22.7631 17.6458 22.5638 17.8451C22.3645 18.0443 22.0943 18.1562 21.8125 18.1562H15.4375V19.2188C15.4376 19.3239 15.4065 19.4267 15.3481 19.5141C15.2897 19.6016 15.2067 19.6697 15.1096 19.71C15.0125 19.7502 14.9056 19.7607 14.8025 19.7402C14.6994 19.7197 14.6047 19.669 14.5304 19.5946L12.9366 18.0009C12.8872 17.9515 12.8481 17.8929 12.8213 17.8284C12.7946 17.7639 12.7808 17.6948 12.7808 17.625C12.7808 17.5552 12.7946 17.4861 12.8213 17.4216C12.8481 17.3571 12.8872 17.2985 12.9366 17.2491L14.5304 15.6554C14.6047 15.581 14.6994 15.5303 14.8025 15.5098C14.9056 15.4893 15.0125 15.4998 15.1096 15.54C15.2067 15.5803 15.2897 15.6484 15.3481 15.7359C15.4065 15.8233 15.4376 15.9261 15.4375 16.0312V17.0938H21.8125V10.1875H14.375V10.7188C14.375 10.8596 14.319 10.9948 14.2194 11.0944C14.1198 11.194 13.9846 11.25 13.8438 11.25C13.7029 11.25 13.5677 11.194 13.4681 11.0944C13.3685 10.9948 13.3125 10.8596 13.3125 10.7188V10.1875C13.3125 9.90571 13.4244 9.63546 13.6237 9.4362C13.823 9.23694 14.0932 9.125 14.375 9.125H21.8125C22.0943 9.125 22.3645 9.23694 22.5638 9.4362C22.7631 9.63546 22.875 9.90571 22.875 10.1875ZM19.1562 19.75C19.0154 19.75 18.8802 19.806 18.7806 19.9056C18.681 20.0052 18.625 20.1404 18.625 20.2812V20.8125H11.1875V13.9062H17.5625V14.9688C17.5624 15.0739 17.5935 15.1767 17.6519 15.2641C17.7103 15.3516 17.7933 15.4197 17.8904 15.46C17.9875 15.5002 18.0944 15.5107 18.1975 15.4902C18.3006 15.4697 18.3953 15.419 18.4696 15.3446L20.0634 13.7509C20.1128 13.7015 20.1519 13.6429 20.1787 13.5784C20.2054 13.5139 20.2192 13.4448 20.2192 13.375C20.2192 13.3052 20.2054 13.2361 20.1787 13.1716C20.1519 13.1071 20.1128 13.0485 20.0634 12.9991L18.4696 11.4054C18.3953 11.331 18.3006 11.2803 18.1975 11.2598C18.0944 11.2393 17.9875 11.2498 17.8904 11.29C17.7933 11.3303 17.7103 11.3984 17.6519 11.4859C17.5935 11.5733 17.5624 11.6761 17.5625 11.7812V12.8438H11.1875C10.9057 12.8438 10.6355 12.9557 10.4362 13.1549C10.2369 13.3542 10.125 13.6245 10.125 13.9062V20.8125C10.125 21.0943 10.2369 21.3645 10.4362 21.5638C10.6355 21.7631 10.9057 21.875 11.1875 21.875H18.625C18.9068 21.875 19.177 21.7631 19.3763 21.5638C19.5756 21.3645 19.6875 21.0943 19.6875 20.8125V20.2812C19.6875 20.1404 19.6315 20.0052 19.5319 19.9056C19.4323 19.806 19.2971 19.75 19.1562 19.75Z" fill="white"/>
</svg>
