<svg width="32" height="32" viewBox="0 0 32 32" fill="none" xmlns="http://www.w3.org/2000/svg">
<path d="M16 32C24.8366 32 32 24.8366 32 16C32 7.16344 24.8366 0 16 0C7.16344 0 0 7.16344 0 16C0 24.8366 7.16344 32 16 32Z" fill="#FF8159"/>
<path d="M21.4796 17.0717H20.7475V14.8758C20.7475 12.3446 18.6435 10.24 16.1123 10.24C13.5504 10.24 11.4764 12.3443 11.4764 14.8758V17.0717H10.7446C9.92027 17.0717 9.28027 17.7424 9.28027 18.5353V24.3913C9.28027 25.2147 9.92059 25.855 10.7443 25.855H21.4796C22.2726 25.855 22.9433 25.2147 22.9433 24.391V18.5353C22.9433 17.7424 22.2726 17.0717 21.4796 17.0717ZM18.3078 17.0717H13.9161V14.8758C13.9161 13.6864 14.8921 12.6797 16.112 12.6797C17.3014 12.6797 18.3078 13.6864 18.3078 14.8758V17.0717Z" fill="#FF5C27"/>
<path d="M21.379 14.1917H20.6472V11.9958C20.6472 9.46463 18.5429 7.35999 16.0114 7.35999C13.4494 7.35999 11.3758 9.46431 11.3758 11.9958V14.1917H10.6437C9.82033 14.1917 9.17969 14.8624 9.17969 15.6553V21.5113C9.17969 22.3347 9.82033 22.975 10.6437 22.975H21.379C22.172 22.975 22.843 22.3347 22.843 21.511V15.6553C22.843 14.8624 22.172 14.1917 21.379 14.1917ZM18.2072 14.1917H13.8155V11.9958C13.8155 10.8064 14.7915 9.79967 16.0114 9.79967C17.2008 9.79967 18.2072 10.8064 18.2072 11.9958V14.1917Z" fill="url(#paint0_radial_79_4689)"/>
<path fill-rule="evenodd" clip-rule="evenodd" d="M20.3272 14.5117V11.9958C20.3272 9.64095 18.3659 7.67999 16.0114 7.67999C13.6277 7.67999 11.6958 9.63967 11.6958 11.9958V14.5117H10.6437C10.3404 14.5117 10.0495 14.6323 9.83496 14.8467C9.62045 15.0612 9.49986 15.352 9.49969 15.6553V21.5113C9.49969 22.1577 9.99697 22.655 10.6437 22.655H21.379C21.6824 22.6549 21.9734 22.5344 22.1879 22.3199C22.4024 22.1053 22.523 21.8144 22.523 21.511V15.6553C22.523 15.0393 21.995 14.5117 21.379 14.5117H20.3272ZM18.5272 14.5117H13.4955V11.9958C13.4955 10.6326 14.612 9.47967 16.0114 9.47967C17.3778 9.47967 18.5272 10.6294 18.5272 11.9958V14.5117ZM21.379 14.1917C22.172 14.1917 22.843 14.8624 22.843 15.6553V21.5113C22.843 22.3347 22.172 22.975 21.379 22.975H10.6437C9.82033 22.975 9.17969 22.3347 9.17969 21.511V15.6553C9.17969 14.8624 9.82033 14.1917 10.6437 14.1917H11.3758V11.9958C11.3758 9.46463 13.4494 7.35999 16.0114 7.35999C18.5426 7.35999 20.6472 9.46431 20.6472 11.9958V14.1917H21.379ZM18.2072 14.1917V11.9958C18.2072 10.8064 17.2008 9.79967 16.0114 9.79967C14.7915 9.79967 13.8155 10.8064 13.8155 11.9958V14.1917H18.2072Z" fill="url(#paint1_linear_79_4689)"/>
<defs>
<radialGradient id="paint0_radial_79_4689" cx="0" cy="0" r="1" gradientUnits="userSpaceOnUse" gradientTransform="translate(10.8798 13.92) rotate(50.5599) scale(12.8449 11.2393)">
<stop stop-color="white"/>
<stop offset="0.922" stop-color="#FFDFD5"/>
</radialGradient>
<linearGradient id="paint1_linear_79_4689" x1="29.9198" y1="21.28" x2="2.71985" y2="15.04" gradientUnits="userSpaceOnUse">
<stop stop-color="white"/>
<stop offset="1" stop-color="#FFF5F2"/>
</linearGradient>
</defs>
</svg>
