<svg width="32" height="33" viewBox="0 0 32 33" fill="none" xmlns="http://www.w3.org/2000/svg">
<path d="M16 32.39C24.8366 32.39 32 25.2266 32 16.39C32 7.55346 24.8366 0.390015 16 0.390015C7.16344 0.390015 0 7.55346 0 16.39C0 25.2266 7.16344 32.39 16 32.39Z" fill="#FF6682"/>
<path fill-rule="evenodd" clip-rule="evenodd" d="M14.0859 18.7542C14.148 18.7427 14.2094 18.7292 14.2699 18.7139C14.9054 20.2019 16.5077 21.1036 18.1643 20.7939C18.6292 20.7074 19.0719 20.5282 19.466 20.2669C19.8601 20.0055 20.1975 19.6675 20.4581 19.2729C20.9301 19.3881 21.4337 19.407 21.9416 19.3119C23.8574 18.9535 25.1205 17.1097 24.7621 15.1935C24.6649 14.6714 24.4509 14.178 24.1361 13.7502C23.8214 13.3224 23.414 12.9713 22.9445 12.7231C22.9477 12.4902 22.9285 12.254 22.884 12.0169C22.5256 10.1007 20.6817 8.83802 18.7656 9.19642C18.2644 9.28952 17.7894 9.49042 17.3736 9.78522C16.9712 9.42697 16.492 9.16574 15.9729 9.02162C15.4538 8.8775 14.9085 8.85432 14.379 8.95386C12.4629 9.31226 11.2001 11.1561 11.5585 13.0723C11.5758 13.1651 11.5969 13.2569 11.6213 13.3468C11.0852 13.7716 10.7068 14.3637 10.5466 15.0286C10.3863 15.6936 10.4534 16.393 10.7371 17.0154C11.0208 17.6378 11.5048 18.1472 12.1118 18.4623C12.7189 18.7775 13.414 18.8802 14.0862 18.7542H14.0859ZM10.0744 21.4473C9.97545 21.7177 9.96108 22.0118 10.0332 22.2905C10.1053 22.5693 10.2606 22.8195 10.4782 23.0079C10.389 23.3125 10.4178 23.6395 10.559 23.9237C10.7001 24.208 10.9433 24.4286 11.2399 24.5415C11.5364 24.6545 11.8647 24.6515 12.1592 24.5331C12.4536 24.4148 12.6927 24.1898 12.8286 23.903C13.0313 23.9113 13.2334 23.8762 13.4213 23.7998C13.6093 23.7235 13.7786 23.6077 13.918 23.4604C14.0574 23.313 14.1636 23.1375 14.2295 22.9457C14.2953 22.7538 14.3193 22.5501 14.2997 22.3482C14.2802 22.1463 14.2176 21.9509 14.1161 21.7753C14.0147 21.5996 13.8768 21.4477 13.7117 21.3299C13.5466 21.212 13.3582 21.1309 13.1591 21.0921C12.96 21.0532 12.7549 21.0575 12.5576 21.1046C12.4068 20.8956 12.202 20.7316 11.9651 20.6303C11.7282 20.5289 11.4682 20.494 11.2129 20.5292C10.9577 20.5644 10.7168 20.6685 10.5162 20.8302C10.3157 20.992 10.1629 21.2053 10.0744 21.4473ZM9.59983 25.6713C9.68016 25.3713 9.63803 25.0517 9.48272 24.7828C9.32741 24.5139 9.07164 24.3177 8.77167 24.2374C8.4717 24.1571 8.1521 24.1992 7.88319 24.3545C7.61428 24.5098 7.41808 24.7656 7.33775 25.0655C7.25738 25.3655 7.29946 25.6851 7.45474 25.9541C7.61002 26.223 7.86578 26.4193 8.16575 26.4996C8.46572 26.58 8.78533 26.5379 9.05427 26.3826C9.32321 26.2274 9.51946 25.9713 9.59983 25.6713Z" fill="#DC0F34"/>
<path fill-rule="evenodd" clip-rule="evenodd" d="M14.0858 16.6146C14.1479 16.6028 14.2094 16.5893 14.2698 16.5743C14.9054 18.0623 16.5076 18.9637 18.1642 18.654C18.6291 18.5676 19.0718 18.3884 19.4659 18.1271C19.86 17.8658 20.1974 17.5279 20.458 17.1333C20.93 17.2485 21.4337 17.2674 21.9415 17.1724C23.8574 16.814 25.1204 14.9698 24.762 13.054C24.6648 12.5318 24.4508 12.0384 24.1361 11.6107C23.8213 11.1829 23.414 10.8318 22.9444 10.5836C22.9476 10.3506 22.9284 10.1145 22.8839 9.87733C22.5255 7.96117 20.6817 6.69813 18.7655 7.05653C18.2643 7.14962 17.7894 7.35053 17.3735 7.64533C16.9711 7.28708 16.492 7.02585 15.9728 6.88173C15.4537 6.73761 14.9085 6.71443 14.379 6.81397C12.4628 7.17237 11.2001 9.01653 11.5585 10.9324C11.5758 11.0255 11.5969 11.117 11.6212 11.2069C11.0851 11.6317 10.7068 12.2238 10.5465 12.8887C10.3862 13.5537 10.4533 14.2531 10.737 14.8755C11.0207 15.4979 11.5047 16.0073 12.1118 16.3224C12.7188 16.6376 13.4139 16.7403 14.0862 16.6143L14.0858 16.6146ZM10.0743 19.3077C9.97539 19.5781 9.96103 19.8722 10.0332 20.151C10.1053 20.4297 10.2605 20.6799 10.4782 20.8684C10.3889 21.1729 10.4178 21.4999 10.5589 21.7842C10.7001 22.0684 10.9432 22.289 11.2398 22.4019C11.5364 22.5149 11.8646 22.5119 12.1591 22.3935C12.4536 22.2752 12.6926 22.0502 12.8286 21.7634C13.0311 21.7716 13.2331 21.7363 13.4209 21.6599C13.6087 21.5835 13.7779 21.4677 13.9172 21.3204C14.0565 21.173 14.1626 20.9976 14.2284 20.8058C14.2941 20.614 14.3181 20.4104 14.2985 20.2086C14.279 20.0068 14.2164 19.8115 14.1151 19.6359C14.0137 19.4603 13.8759 19.3085 13.711 19.1906C13.546 19.0728 13.3577 18.9916 13.1587 18.9526C12.9598 18.9137 12.7548 18.9178 12.5575 18.9647C12.4068 18.7557 12.2019 18.5918 11.965 18.4904C11.7282 18.389 11.4681 18.3541 11.2129 18.3893C10.9576 18.4245 10.7168 18.5286 10.5162 18.6904C10.3156 18.8521 10.1629 19.0657 10.0743 19.3077ZM9.59977 23.5317C9.64228 23.3824 9.65466 23.226 9.63617 23.0718C9.61769 22.9176 9.56872 22.7687 9.4921 22.6336C9.41549 22.4985 9.31277 22.38 9.18992 22.285C9.06707 22.19 8.92655 22.1204 8.77653 22.0802C8.62652 22.04 8.47001 22.0301 8.31613 22.051C8.16224 22.0718 8.01404 22.1231 7.88017 22.2019C7.74629 22.2806 7.62941 22.3851 7.53633 22.5094C7.44326 22.6338 7.37584 22.7754 7.33801 22.926C7.26313 23.2241 7.30849 23.5397 7.46427 23.8046C7.62006 24.0696 7.87379 24.2627 8.1707 24.3422C8.46761 24.4217 8.78388 24.3813 9.05124 24.2297C9.31861 24.078 9.51562 23.8274 9.59977 23.5317Z" fill="url(#paint0_radial_79_4733)"/>
<path fill-rule="evenodd" clip-rule="evenodd" d="M14.1917 16.2639L14.4564 16.1976L14.5636 16.4485C15.1418 17.8015 16.5988 18.6213 18.105 18.3394C18.5278 18.2608 18.9303 18.0979 19.2887 17.8602C19.6471 17.6226 19.9539 17.3152 20.1908 16.9564L20.3149 16.7692L20.5335 16.8223C20.9623 16.9269 21.4199 16.9442 21.8823 16.8575C23.6247 16.5317 24.7729 14.8549 24.4471 13.1125C24.3587 12.6377 24.1641 12.189 23.8778 11.8C23.5916 11.411 23.221 11.0917 22.794 10.8661L22.6212 10.7743L22.6241 10.5784C22.6272 10.363 22.6088 10.1477 22.569 9.93589C22.2433 8.19349 20.5665 7.04533 18.8241 7.37109C18.3683 7.45567 17.9363 7.63835 17.5581 7.90645L17.3508 8.05365L17.1604 7.88501C16.7945 7.5591 16.3588 7.32143 15.8867 7.19029C15.4146 7.05914 14.9187 7.03802 14.4372 7.12853C12.6951 7.45461 11.5466 9.13141 11.8727 10.8738C11.8887 10.9586 11.9076 11.0418 11.9297 11.1234L11.9844 11.3269L11.8199 11.4578C11.3398 11.8381 11.0009 12.3683 10.8573 12.9638C10.7138 13.5592 10.7738 14.1856 11.0278 14.7429C11.2818 15.3003 11.7152 15.7565 12.2588 16.0387C12.8024 16.3209 13.4249 16.4129 14.0269 16.3L14.0855 16.6146C13.4132 16.7407 12.718 16.6379 12.1109 16.3227C11.5038 16.0075 11.0198 15.4981 10.7361 14.8756C10.4525 14.2532 10.3854 13.5537 10.5458 12.8887C10.7062 12.2237 11.0846 11.6316 11.6209 11.2069C11.5964 11.1164 11.5754 11.0249 11.5581 10.9327C11.1997 9.01653 12.4625 7.17269 14.3786 6.81429C14.908 6.7148 15.4532 6.738 15.9723 6.88212C16.4914 7.02624 16.9705 7.28744 17.3729 7.64565C17.7887 7.35084 18.2637 7.14994 18.7649 7.05685C20.6813 6.69845 22.5252 7.96117 22.8836 9.87733C22.9281 10.1141 22.9476 10.3506 22.944 10.5832C23.4136 10.8314 23.821 11.1825 24.1357 11.6103C24.4505 12.0381 24.6644 12.5315 24.7617 13.0536C25.1201 14.9698 23.8573 16.8136 21.9412 17.172C21.4333 17.2671 20.93 17.2482 20.4577 17.1333C20.197 17.5279 19.8595 17.8659 19.4654 18.1272C19.0712 18.3884 18.6285 18.5676 18.1636 18.654C16.5073 18.9637 14.905 18.062 14.2692 16.5743C14.209 16.5893 14.1476 16.6031 14.0855 16.6146L14.0269 16.3C14.0823 16.2897 14.1371 16.2776 14.1917 16.2639ZM10.8429 20.7612L10.785 20.9586C10.7192 21.1856 10.7412 21.4291 10.8466 21.6406C10.952 21.8522 11.1331 22.0164 11.354 22.1005C11.5749 22.1847 11.8193 22.1827 12.0388 22.0949C12.2583 22.0071 12.4367 21.84 12.5386 21.6268L12.6295 21.4351L12.8407 21.4437C12.9976 21.4501 13.1541 21.4229 13.2996 21.3637C13.445 21.3046 13.5762 21.215 13.6841 21.1009C13.792 20.9868 13.8743 20.8509 13.9253 20.7024C13.9763 20.5539 13.9948 20.3961 13.9797 20.2398C13.9646 20.0835 13.9162 19.9322 13.8378 19.7962C13.7593 19.6602 13.6526 19.5425 13.5248 19.4512C13.3971 19.3599 13.2512 19.297 13.0971 19.2668C12.943 19.2366 12.7842 19.2397 12.6314 19.276L12.4228 19.3256L12.2977 19.1519C12.2068 19.0265 12.0904 18.9217 11.9562 18.8444C11.8219 18.7671 11.6729 18.719 11.5188 18.7034C11.3647 18.6877 11.209 18.7049 11.062 18.7536C10.915 18.8023 10.7799 18.8816 10.6657 18.9862C10.5514 19.0908 10.4606 19.2184 10.3992 19.3606C10.3377 19.5028 10.307 19.6563 10.309 19.8112C10.3111 19.9661 10.3459 20.1188 10.4111 20.2593C10.4763 20.3998 10.5704 20.5249 10.6874 20.6264L10.8429 20.7612ZM10.4781 20.8684C10.3265 20.7374 10.2042 20.5758 10.1195 20.3943C10.0348 20.2127 9.98948 20.0152 9.98656 19.8149C9.98364 19.6145 10.0232 19.4158 10.1026 19.2318C10.182 19.0479 10.2994 18.8828 10.4472 18.7475C10.595 18.6121 10.7697 18.5097 10.96 18.4467C11.1502 18.3838 11.3516 18.3619 11.5509 18.3824C11.7503 18.4029 11.943 18.4654 12.1164 18.5658C12.2898 18.6662 12.4401 18.8021 12.5572 18.9647C12.7543 18.9182 12.959 18.9143 13.1577 18.9535C13.3564 18.9927 13.5444 19.0739 13.709 19.1918C13.8737 19.3096 14.0112 19.4614 14.1124 19.6368C14.2135 19.8122 14.276 20.0073 14.2955 20.2088C14.315 20.4104 14.2912 20.6138 14.2256 20.8054C14.1599 20.9969 14.0541 21.1722 13.9151 21.3195C13.7761 21.4668 13.6072 21.5826 13.4197 21.6591C13.2322 21.7357 13.0306 21.7713 12.8282 21.7634C12.6923 22.0502 12.4532 22.2752 12.1588 22.3935C11.8643 22.5119 11.536 22.5149 11.2394 22.4019C10.9429 22.289 10.6997 22.0684 10.5586 21.7842C10.4174 21.4999 10.3889 21.1729 10.4781 20.8684ZM9.29029 23.4492C9.32116 23.3406 9.33013 23.2271 9.3167 23.1151C9.30326 23.003 9.26768 22.8948 9.21202 22.7967C9.15637 22.6985 9.08175 22.6124 8.99251 22.5434C8.90327 22.4744 8.80119 22.4238 8.69222 22.3945C8.58324 22.3653 8.46954 22.3581 8.35774 22.3732C8.24593 22.3883 8.13825 22.4256 8.04097 22.4827C7.94368 22.5398 7.85873 22.6157 7.79105 22.706C7.72338 22.7963 7.67433 22.8991 7.64677 23.0085C7.59219 23.2252 7.62502 23.4546 7.73817 23.6473C7.85132 23.84 8.03571 23.9804 8.25153 24.0382C8.46734 24.0961 8.69725 24.0668 8.8916 23.9565C9.08596 23.8463 9.22917 23.6641 9.29029 23.4492ZM8.77157 22.0981C8.92289 22.1353 9.06527 22.2023 9.19036 22.2952C9.31545 22.3882 9.42073 22.5051 9.50004 22.6392C9.57935 22.7734 9.63109 22.922 9.65223 23.0764C9.67337 23.2307 9.66348 23.3878 9.62314 23.5383C9.5828 23.6888 9.51283 23.8297 9.41732 23.9529C9.32181 24.076 9.20268 24.1788 9.06693 24.2553C8.93117 24.3318 8.78151 24.3804 8.62672 24.3983C8.47193 24.4162 8.31513 24.403 8.16549 24.3596C7.87136 24.2741 7.62242 24.0768 7.47207 23.8099C7.32171 23.5431 7.28191 23.2279 7.3612 22.9321C7.4405 22.6362 7.63256 22.3832 7.89622 22.2273C8.15987 22.0714 8.47412 22.025 8.77157 22.0981Z" fill="url(#paint1_linear_79_4733)"/>
<defs>
<radialGradient id="paint0_radial_79_4733" cx="0" cy="0" r="1" gradientUnits="userSpaceOnUse" gradientTransform="translate(18.8105 17.8222) rotate(-132.979) scale(7.61709 7.56454)">
<stop stop-color="#FEFAFB"/>
<stop offset="1" stop-color="#FFDFEE"/>
</radialGradient>
<linearGradient id="paint1_linear_79_4733" x1="11.8218" y1="4.89461" x2="21.9748" y2="24.3999" gradientUnits="userSpaceOnUse">
<stop stop-color="white"/>
<stop offset="1" stop-color="white" stop-opacity="0"/>
</linearGradient>
</defs>
</svg>
