<svg width="32" height="33" viewBox="0 0 32 33" fill="none" xmlns="http://www.w3.org/2000/svg">
<path d="M16 32.39C24.8366 32.39 32 25.2266 32 16.39C32 7.55346 24.8366 0.390015 16 0.390015C7.16344 0.390015 0 7.55346 0 16.39C0 25.2266 7.16344 32.39 16 32.39Z" fill="#FF6682"/>
<path d="M22.1884 13.4679L18.4696 9.74914C18.4202 9.69982 18.3616 9.66072 18.2971 9.63405C18.2326 9.60739 18.1635 9.5937 18.0938 9.59375H11.7188C11.437 9.59375 11.1667 9.70569 10.9674 9.90495C10.7682 10.1042 10.6563 10.3745 10.6562 10.6563V22.3438C10.6562 22.6255 10.7682 22.8958 10.9674 23.0951C11.1667 23.2943 11.437 23.4062 11.7188 23.4062H21.2812C21.563 23.4062 21.8333 23.2943 22.0326 23.0951C22.2318 22.8958 22.3438 22.6255 22.3438 22.3438V13.8438C22.3438 13.774 22.3301 13.7049 22.3034 13.6404C22.2768 13.5759 22.2377 13.5173 22.1884 13.4679ZM18.0938 13.8438V10.9219L21.0156 13.8438H18.0938Z" fill="#D1556B"/>
<path d="M22.1884 12.4679L18.4696 8.74914C18.4202 8.69982 18.3616 8.66072 18.2971 8.63405C18.2326 8.60739 18.1635 8.5937 18.0938 8.59375H11.7188C11.437 8.59375 11.1667 8.70569 10.9674 8.90495C10.7682 9.10421 10.6563 9.37446 10.6562 9.65625V21.3438C10.6562 21.6255 10.7682 21.8958 10.9674 22.0951C11.1667 22.2943 11.437 22.4062 11.7188 22.4062H21.2812C21.563 22.4062 21.8333 22.2943 22.0326 22.0951C22.2318 21.8958 22.3438 21.6255 22.3438 21.3438V12.8438C22.3438 12.774 22.3301 12.7049 22.3034 12.6404C22.2768 12.5759 22.2377 12.5173 22.1884 12.4679ZM18.0938 12.8438V9.92188L21.0156 12.8438H18.0938Z" fill="white"/>
</svg>
