<svg width="32" height="32" viewBox="0 0 32 32" fill="none" xmlns="http://www.w3.org/2000/svg">
<path d="M32 16C32 24.8365 24.8365 32 16 32C7.16352 32 0 24.8365 0 16C0 7.16352 7.16352 0 16 0C24.8365 0 32 7.16352 32 16Z" fill="#FFC737"/>
<path d="M16.3203 10.6572C11.3494 10.6572 7.35872 13.9478 7.35872 17.9385C7.35872 19.6889 8.09376 21.2643 9.35392 22.5241C8.89888 24.3097 7.4288 25.8499 7.4288 25.8847C7.3584 25.9551 7.32352 26.095 7.3584 26.1999C7.4288 26.3049 7.49856 26.3401 7.63872 26.3401C9.94912 26.3401 11.6995 25.2547 12.5395 24.5545C13.751 24.9964 15.0308 25.2216 16.3203 25.2198C21.256 25.2198 25.2816 21.9641 25.2816 17.9385C25.2816 13.9481 21.2563 10.6572 16.3203 10.6572ZM18.5603 15.3481C19.0506 15.3481 19.4707 15.7683 19.4707 16.2582C19.4707 16.7833 19.0506 17.2035 18.5606 17.2035C18.4363 17.204 18.3132 17.1799 18.1982 17.1326C18.0833 17.0853 17.9789 17.0157 17.891 16.9278C17.8031 16.8399 17.7335 16.7355 17.6862 16.6206C17.6389 16.5056 17.6148 16.3825 17.6154 16.2582C17.6154 15.7683 18.0352 15.3481 18.5603 15.3481ZM14.0797 15.3481C14.5699 15.3481 14.9898 15.7683 14.9898 16.2582C14.9898 16.7833 14.5699 17.2035 14.0797 17.2035C13.9554 17.204 13.8323 17.1799 13.7174 17.1325C13.6025 17.0852 13.4981 17.0156 13.4102 16.9277C13.3224 16.8398 13.2528 16.7354 13.2055 16.6205C13.1582 16.5056 13.1342 16.3824 13.1347 16.2582C13.1347 15.7683 13.5546 15.3481 14.0797 15.3481ZM19.8205 20.2841C18.9456 21.2991 17.6502 21.8591 16.3203 21.8591C14.9549 21.8591 13.6598 21.2991 12.7843 20.2841C12.6096 20.039 12.6096 19.6889 12.8547 19.4787C13.0995 19.2687 13.4499 19.3036 13.6598 19.5491C14.2899 20.319 15.2701 20.7391 16.2851 20.7391C17.3354 20.7391 18.2803 20.319 18.9456 19.5487C19.1555 19.3036 19.5056 19.2687 19.7507 19.4787C19.9958 19.6889 19.9958 20.0387 19.8208 20.2841H19.8205Z" fill="#FDA227"/>
<path d="M16.3203 7.46338C11.3494 7.46338 7.35872 10.7539 7.35872 14.7447C7.35872 16.4951 8.09376 18.0701 9.35392 19.3303C8.89888 21.1159 7.4288 22.656 7.4288 22.6909C7.3584 22.761 7.32352 22.9008 7.3584 23.0061C7.4288 23.1111 7.49856 23.1459 7.63872 23.1459C9.94912 23.1459 11.6995 22.0608 12.5395 21.3607C13.751 21.8025 15.0308 22.0277 16.3203 22.0259C21.256 22.0259 25.2816 18.7703 25.2816 14.7447C25.2816 10.7539 21.2563 7.46338 16.3203 7.46338ZM18.5603 12.1543C19.0506 12.1543 19.4707 12.5741 19.4707 13.0643C19.4707 13.5891 19.0506 14.0096 18.5606 14.0096C18.4363 14.0102 18.3132 13.9861 18.1982 13.9388C18.0833 13.8915 17.9789 13.8219 17.891 13.734C17.8031 13.6461 17.7335 13.5417 17.6862 13.4267C17.6389 13.3118 17.6148 13.1886 17.6154 13.0643C17.6154 12.5741 18.0352 12.1543 18.5603 12.1543ZM14.0797 12.1543C14.5699 12.1543 14.9898 12.5741 14.9898 13.0643C14.9898 13.5891 14.5699 14.0096 14.0797 14.0096C13.9554 14.0101 13.8323 13.986 13.7174 13.9387C13.6025 13.8914 13.4981 13.8217 13.4102 13.7339C13.3224 13.646 13.2528 13.5416 13.2055 13.4267C13.1582 13.3117 13.1342 13.1886 13.1347 13.0643C13.1347 12.5741 13.5546 12.1543 14.0797 12.1543ZM19.8205 17.0899C18.9456 18.1053 17.6502 18.6653 16.3203 18.6653C14.9549 18.6653 13.6598 18.1053 12.7843 17.0899C12.6096 16.8448 12.6096 16.4947 12.8547 16.2848C13.0995 16.0749 13.4499 16.1098 13.6598 16.3549C14.2899 17.1251 15.2701 17.5453 16.2851 17.5453C17.3354 17.5453 18.2803 17.1251 18.9456 16.3549C19.1555 16.1098 19.5056 16.0749 19.7507 16.2848C19.9958 16.4951 19.9958 16.8448 19.8208 17.0899H19.8205Z" fill="url(#paint0_radial_79_4699)"/>
<path fill-rule="evenodd" clip-rule="evenodd" d="M9.73104 19.2272L9.68304 19.4141C9.44144 20.3629 8.93488 21.2327 8.5 21.8602C8.31972 22.1198 8.12917 22.3722 7.9288 22.6167C7.86544 22.6941 7.812 22.7578 7.77264 22.8048L7.77168 22.8058C9.9112 22.7655 11.5362 21.7562 12.3234 21.1002L12.4731 20.9754L12.6562 21.0419C13.8305 21.4703 15.0711 21.6885 16.3211 21.6867C21.139 21.6867 24.9435 18.5203 24.9435 14.7447C24.9435 11.0032 21.1381 7.80258 16.3208 7.80258C11.4696 7.80258 7.6984 11.0026 7.6984 14.7447C7.6984 16.3933 8.38928 17.8851 9.5944 19.0906L9.73104 19.2272ZM7.35952 23.0061C7.32432 22.9008 7.35952 22.761 7.4296 22.6909C7.4296 22.6858 7.45968 22.6499 7.51312 22.5863C7.83088 22.2083 8.96496 20.8592 9.35472 19.3303C8.09456 18.0701 7.35952 16.4951 7.35952 14.7447C7.35952 10.7539 11.3499 7.46338 16.3211 7.46338C21.2568 7.46338 25.2824 10.7539 25.2824 14.7447C25.2824 18.7703 21.2568 22.0259 16.3208 22.0259C14.9557 22.0259 13.6955 21.7808 12.5403 21.3607C11.7003 22.0608 9.94992 23.1463 7.63952 23.1463C7.49936 23.1463 7.4296 23.1111 7.35952 23.0061ZM20.0885 17.2992L20.0782 17.3111C19.1352 18.4048 17.7445 19.0039 16.3208 19.0039C14.8638 19.0039 13.4725 18.4061 12.5288 17.3111L12.5186 17.2992L12.5093 17.2867C12.2546 16.9299 12.229 16.3747 12.6347 16.0272C13.0283 15.6896 13.5918 15.7536 13.9179 16.1338L13.9205 16.137L13.923 16.1399C14.4818 16.8227 15.3608 17.2055 16.2859 17.2055C17.2421 17.2055 18.0917 16.8253 18.6891 16.1335C19.0155 15.7533 19.5787 15.6896 19.9723 16.0272C20.3778 16.3747 20.3525 16.9296 20.0974 17.2867L20.0885 17.2992ZM18.9464 16.3546C18.2811 17.1248 17.3362 17.545 16.2859 17.545C15.2709 17.545 14.2907 17.1248 13.6606 16.3546C13.4504 16.1095 13.1006 16.0746 12.8552 16.2845C12.6104 16.4947 12.6104 16.8445 12.7854 17.0896C13.6606 18.1056 14.9557 18.6656 16.3205 18.6656C17.6507 18.6656 18.9461 18.1056 19.8213 17.0903C19.9963 16.8451 19.9963 16.4951 19.7512 16.2851C19.5061 16.0752 19.156 16.1101 18.9461 16.3552L18.9464 16.3546ZM18.5614 11.8147C19.2386 11.8147 19.8104 12.3866 19.8104 13.064C19.8104 13.768 19.2472 14.3482 18.5614 14.3482C18.3926 14.3488 18.2254 14.316 18.0693 14.2516C17.9132 14.1873 17.7714 14.0928 17.652 13.9734C17.5326 13.854 17.438 13.7122 17.3736 13.5562C17.3093 13.4001 17.2764 13.2328 17.277 13.064C17.277 12.3786 17.8574 11.8147 18.5614 11.8147ZM14.0805 11.8147C14.7579 11.8147 15.3298 12.3866 15.3298 13.064C15.3298 13.768 14.7662 14.3482 14.0805 14.3482C13.9117 14.3487 13.7445 14.3159 13.5884 14.2515C13.4324 14.1872 13.2906 14.0926 13.1712 13.9733C13.0519 13.8539 12.9573 13.7121 12.893 13.5561C12.8286 13.4 12.7958 13.2328 12.7963 13.064C12.7963 12.3786 13.3765 11.8147 14.0805 11.8147ZM19.4715 13.064C19.4715 12.5738 19.0514 12.1539 18.5614 12.1539C18.0363 12.1539 17.6162 12.5738 17.6162 13.064C17.6156 13.1883 17.6397 13.3115 17.687 13.4264C17.7343 13.5413 17.8039 13.6458 17.8918 13.7337C17.9797 13.8215 18.0841 13.8912 18.199 13.9385C18.314 13.9858 18.4371 14.0098 18.5614 14.0093C19.0514 14.0093 19.4715 13.5891 19.4715 13.064ZM14.9906 13.064C14.9906 12.5738 14.5707 12.1539 14.0805 12.1539C13.5557 12.1539 13.1355 12.5738 13.1355 13.064C13.1349 13.1883 13.159 13.3115 13.2062 13.4264C13.2535 13.5414 13.3231 13.6458 13.4109 13.7338C13.4988 13.8217 13.6032 13.8913 13.7181 13.9387C13.833 13.986 13.9562 14.0101 14.0805 14.0096C14.5707 14.0096 14.9906 13.5891 14.9906 13.064Z" fill="white"/>
<defs>
<radialGradient id="paint0_radial_79_4699" cx="0" cy="0" r="1" gradientUnits="userSpaceOnUse" gradientTransform="translate(22.4404 19.9072) rotate(-148.146) scale(23.5783 26.9673)">
<stop stop-color="white"/>
<stop offset="1" stop-color="#FFF5E6"/>
</radialGradient>
</defs>
</svg>
