<svg width="32" height="32" viewBox="0 0 32 32" fill="none" xmlns="http://www.w3.org/2000/svg">
<path d="M16 32C24.8366 32 32 24.8366 32 16C32 7.16344 24.8366 0 16 0C7.16344 0 0 7.16344 0 16C0 24.8366 7.16344 32 16 32Z" fill="#FF8159"/>
<path d="M22.875 11.1875H10.125C9.84321 11.1875 9.57296 11.2994 9.3737 11.4987C9.17444 11.698 9.0625 11.9682 9.0625 12.25V20.75C9.0625 21.0318 9.17444 21.302 9.3737 21.5013C9.57296 21.7006 9.84321 21.8125 10.125 21.8125H22.875C23.1568 21.8125 23.427 21.7006 23.6263 21.5013C23.8256 21.302 23.9375 21.0318 23.9375 20.75V12.25C23.9375 11.9682 23.8256 11.698 23.6263 11.4987C23.427 11.2994 23.1568 11.1875 22.875 11.1875ZM17.0312 19.6875H15.9688C15.8279 19.6875 15.6927 19.6315 15.5931 19.5319C15.4935 19.4323 15.4375 19.2971 15.4375 19.1562C15.4375 19.0154 15.4935 18.8802 15.5931 18.7806C15.6927 18.681 15.8279 18.625 15.9688 18.625H17.0312C17.1721 18.625 17.3073 18.681 17.4069 18.7806C17.5065 18.8802 17.5625 19.0154 17.5625 19.1562C17.5625 19.2971 17.5065 19.4323 17.4069 19.5319C17.3073 19.6315 17.1721 19.6875 17.0312 19.6875ZM21.2812 19.6875H19.1562C19.0154 19.6875 18.8802 19.6315 18.7806 19.5319C18.681 19.4323 18.625 19.2971 18.625 19.1562C18.625 19.0154 18.681 18.8802 18.7806 18.7806C18.8802 18.681 19.0154 18.625 19.1562 18.625H21.2812C21.4221 18.625 21.5573 18.681 21.6569 18.7806C21.7565 18.8802 21.8125 19.0154 21.8125 19.1562C21.8125 19.2971 21.7565 19.4323 21.6569 19.5319C21.5573 19.6315 21.4221 19.6875 21.2812 19.6875ZM10.125 13.8438V12.25H22.875V13.8438H10.125Z" fill="#CF6A49"/>
<path d="M22.875 10.1875H10.125C9.84321 10.1875 9.57296 10.2994 9.3737 10.4987C9.17444 10.698 9.0625 10.9682 9.0625 11.25V19.75C9.0625 20.0318 9.17444 20.302 9.3737 20.5013C9.57296 20.7006 9.84321 20.8125 10.125 20.8125H22.875C23.1568 20.8125 23.427 20.7006 23.6263 20.5013C23.8256 20.302 23.9375 20.0318 23.9375 19.75V11.25C23.9375 10.9682 23.8256 10.698 23.6263 10.4987C23.427 10.2994 23.1568 10.1875 22.875 10.1875ZM17.0312 18.6875H15.9688C15.8279 18.6875 15.6927 18.6315 15.5931 18.5319C15.4935 18.4323 15.4375 18.2971 15.4375 18.1562C15.4375 18.0154 15.4935 17.8802 15.5931 17.7806C15.6927 17.681 15.8279 17.625 15.9688 17.625H17.0312C17.1721 17.625 17.3073 17.681 17.4069 17.7806C17.5065 17.8802 17.5625 18.0154 17.5625 18.1562C17.5625 18.2971 17.5065 18.4323 17.4069 18.5319C17.3073 18.6315 17.1721 18.6875 17.0312 18.6875ZM21.2812 18.6875H19.1562C19.0154 18.6875 18.8802 18.6315 18.7806 18.5319C18.681 18.4323 18.625 18.2971 18.625 18.1562C18.625 18.0154 18.681 17.8802 18.7806 17.7806C18.8802 17.681 19.0154 17.625 19.1562 17.625H21.2812C21.4221 17.625 21.5573 17.681 21.6569 17.7806C21.7565 17.8802 21.8125 18.0154 21.8125 18.1562C21.8125 18.2971 21.7565 18.4323 21.6569 18.5319C21.5573 18.6315 21.4221 18.6875 21.2812 18.6875ZM10.125 12.8438V11.25H22.875V12.8438H10.125Z" fill="white"/>
</svg>
