<svg width="32" height="32" viewBox="0 0 32 32" fill="none" xmlns="http://www.w3.org/2000/svg">
<path d="M32 16C32 24.8365 24.8365 32 16 32C7.16352 32 0 24.8365 0 16C0 7.16352 7.16352 0 16 0C24.8365 0 32 7.16352 32 16Z" fill="#00CA75"/>
<path d="M10.8121 14.6884C10.7627 14.6391 10.7235 14.5805 10.6967 14.516C10.67 14.4515 10.6562 14.3824 10.6562 14.3126C10.6562 14.2427 10.67 14.1736 10.6967 14.1091C10.7235 14.0446 10.7627 13.986 10.8121 13.9367L12.9371 11.8117C13.0114 11.7373 13.1061 11.6866 13.2092 11.6661C13.3123 11.6456 13.4192 11.6561 13.5163 11.6963C13.6134 11.7366 13.6964 11.8047 13.7548 11.8922C13.8131 11.9796 13.8443 12.0824 13.8442 12.1876V13.7813H21.8129C21.9538 13.7813 22.0889 13.8373 22.1886 13.9369C22.2882 14.0365 22.3442 14.1717 22.3442 14.3126C22.3442 14.4534 22.2882 14.5886 22.1886 14.6882C22.0889 14.7878 21.9538 14.8438 21.8129 14.8438H13.8442V16.4376C13.8443 16.5427 13.8131 16.6455 13.7548 16.7329C13.6964 16.8204 13.6134 16.8885 13.5163 16.9288C13.4192 16.969 13.3123 16.9795 13.2092 16.959C13.1061 16.9385 13.0114 16.8878 12.9371 16.8134L10.8121 14.6884ZM22.1888 20.3117L20.0638 18.1867C19.9895 18.1123 19.8948 18.0616 19.7917 18.0411C19.6886 18.0206 19.5817 18.0311 19.4846 18.0713C19.3874 18.1116 19.3044 18.1797 19.2461 18.2672C19.1877 18.3546 19.1566 18.4574 19.1567 18.5626V20.1563H11.1879C11.047 20.1563 10.9119 20.2123 10.8123 20.3119C10.7126 20.4115 10.6567 20.5467 10.6567 20.6876C10.6567 20.8284 10.7126 20.9636 10.8123 21.0632C10.9119 21.1628 11.047 21.2188 11.1879 21.2188H19.1567V22.8126C19.1566 22.9177 19.1877 23.0205 19.2461 23.1079C19.3044 23.1954 19.3874 23.2635 19.4846 23.3038C19.5817 23.344 19.6886 23.3545 19.7917 23.334C19.8948 23.3135 19.9895 23.2628 20.0638 23.1884L22.1888 21.0634C22.2382 21.0141 22.2774 20.9555 22.3041 20.891C22.3308 20.8265 22.3446 20.7574 22.3446 20.6876C22.3446 20.6177 22.3308 20.5486 22.3041 20.4841C22.2774 20.4196 22.2382 20.361 22.1888 20.3117Z" fill="#06AE67"/>
<path d="M10.8121 13.6884C10.7627 13.6391 10.7235 13.5805 10.6967 13.516C10.67 13.4515 10.6562 13.3824 10.6562 13.3126C10.6562 13.2427 10.67 13.1736 10.6967 13.1091C10.7235 13.0446 10.7627 12.986 10.8121 12.9367L12.9371 10.8117C13.0114 10.7373 13.1061 10.6866 13.2092 10.6661C13.3123 10.6456 13.4192 10.6561 13.5163 10.6963C13.6134 10.7366 13.6964 10.8047 13.7548 10.8922C13.8131 10.9796 13.8443 11.0824 13.8442 11.1876V12.7813H21.8129C21.9538 12.7813 22.0889 12.8373 22.1886 12.9369C22.2882 13.0365 22.3442 13.1717 22.3442 13.3126C22.3442 13.4534 22.2882 13.5886 22.1886 13.6882C22.0889 13.7878 21.9538 13.8438 21.8129 13.8438H13.8442V15.4376C13.8443 15.5427 13.8131 15.6455 13.7548 15.7329C13.6964 15.8204 13.6134 15.8885 13.5163 15.9288C13.4192 15.969 13.3123 15.9795 13.2092 15.959C13.1061 15.9385 13.0114 15.8878 12.9371 15.8134L10.8121 13.6884ZM22.1888 19.3117L20.0638 17.1867C19.9895 17.1123 19.8948 17.0616 19.7917 17.0411C19.6886 17.0206 19.5817 17.0311 19.4846 17.0713C19.3874 17.1116 19.3044 17.1797 19.2461 17.2672C19.1877 17.3546 19.1566 17.4574 19.1567 17.5626V19.1563H11.1879C11.047 19.1563 10.9119 19.2123 10.8123 19.3119C10.7126 19.4115 10.6567 19.5467 10.6567 19.6876C10.6567 19.8284 10.7126 19.9636 10.8123 20.0632C10.9119 20.1628 11.047 20.2188 11.1879 20.2188H19.1567V21.8126C19.1566 21.9177 19.1877 22.0205 19.2461 22.1079C19.3044 22.1954 19.3874 22.2635 19.4846 22.3038C19.5817 22.344 19.6886 22.3545 19.7917 22.334C19.8948 22.3135 19.9895 22.2628 20.0638 22.1884L22.1888 20.0634C22.2382 20.0141 22.2774 19.9555 22.3041 19.891C22.3308 19.8265 22.3446 19.7574 22.3446 19.6876C22.3446 19.6177 22.3308 19.5486 22.3041 19.4841C22.2774 19.4196 22.2382 19.361 22.1888 19.3117Z" fill="white"/>
</svg>
