<svg width="32" height="33" viewBox="0 0 32 33" fill="none" xmlns="http://www.w3.org/2000/svg">
<path d="M16 32.39C24.8366 32.39 32 25.2266 32 16.39C32 7.55346 24.8366 0.390015 16 0.390015C7.16344 0.390015 0 7.55346 0 16.39C0 25.2266 7.16344 32.39 16 32.39Z" fill="#6C60F7"/>
<path d="M16.8413 26.7043C19.3018 26.7043 21.5444 25.6144 23.0391 23.7766C23.2573 23.4963 23.008 23.0915 22.6656 23.1539C18.8032 23.9011 15.2528 20.9427 15.2528 17.0182C15.2502 15.9173 15.5401 14.8354 16.0928 13.8832C16.6455 12.931 17.4411 12.1428 18.3984 11.599C18.7101 11.4121 18.6167 10.976 18.274 10.9136C17.9002 10.8201 17.2461 10.7891 16.8413 10.7581C12.4189 10.7581 8.8682 14.3398 8.8682 18.7312C8.86499 19.7791 9.06903 20.8174 9.46858 21.7862C9.86813 22.7549 10.4553 23.6352 11.1963 24.3762C11.9373 25.1172 12.8176 25.7044 13.7863 26.1039C14.7551 26.5035 15.7934 26.7075 16.8413 26.7043Z" fill="#5001FA"/>
<path d="M16.8413 24.4422C19.3018 24.4422 21.5444 23.3523 23.0391 21.5145C23.2573 21.2342 23.008 20.8294 22.6656 20.8918C18.8032 21.639 15.2528 18.6806 15.2528 14.7561C15.2502 13.6552 15.54 12.5733 16.0927 11.6211C16.6454 10.6689 17.4411 9.88066 18.3984 9.33693C18.7101 9.15005 18.6167 8.71389 18.274 8.65149C17.9002 8.55805 17.2461 8.52669 16.8413 8.49597C12.4189 8.49597 8.8682 12.0774 8.8682 16.4691C8.86499 17.517 9.06903 18.5553 9.46858 19.5241C9.86813 20.4929 10.4553 21.3731 11.1963 22.1141C11.9373 22.8551 12.8176 23.4423 13.7863 23.8418C14.7551 24.2414 15.7934 24.4454 16.8413 24.4422Z" fill="url(#paint0_radial_79_4760)"/>
<path fill-rule="evenodd" clip-rule="evenodd" d="M18.2064 8.96445L18.1962 8.96189C17.9184 8.89245 17.4592 8.86045 17.0656 8.83293L16.8292 8.81597C12.5898 8.82237 9.1882 12.2576 9.1882 16.4691C9.18499 17.475 9.38075 18.4716 9.76422 19.4016C10.1477 20.3316 10.7113 21.1765 11.4226 21.8878C12.1339 22.5991 12.9788 23.1627 13.9088 23.5462C14.8388 23.9297 15.8354 24.1254 16.8413 24.1222C19.2036 24.1222 21.3536 23.0771 22.7882 21.3161C22.796 21.3065 22.8005 21.2946 22.801 21.2822C22.8009 21.2675 22.7967 21.2531 22.7888 21.2406C22.7815 21.2277 22.7706 21.2172 22.7575 21.2102C22.747 21.2052 22.7352 21.2039 22.7239 21.2064C18.6634 21.9904 14.9328 18.879 14.9328 14.7561C14.9328 12.4006 16.176 10.24 18.2359 9.06109C18.2573 9.04797 18.2634 9.03645 18.2653 9.03165C18.2684 9.02437 18.2692 9.01634 18.2676 9.00861C18.2657 8.99929 18.2611 8.99072 18.2544 8.98397C18.244 8.97425 18.2308 8.96809 18.2167 8.96637L18.2064 8.96445ZM18.3984 9.33661C17.4411 9.88037 16.6453 10.6687 16.0926 11.6209C15.5399 12.5732 15.2501 13.6551 15.2528 14.7561C15.2528 18.6803 18.8036 21.6393 22.6656 20.8918C23.008 20.8294 23.2573 21.2342 23.0391 21.5145C21.5444 23.3523 19.3015 24.4425 16.8413 24.4425C15.7933 24.4457 14.7551 24.2417 13.7863 23.8421C12.8175 23.4426 11.9372 22.8554 11.1962 22.1143C10.4552 21.3733 9.86802 20.493 9.46849 19.5242C9.06896 18.5553 8.86495 17.5171 8.8682 16.4691C8.8682 12.0774 12.4186 8.49597 16.8413 8.49597C16.9117 8.50141 16.9904 8.50685 17.0733 8.51261C17.4663 8.53981 17.9655 8.57437 18.274 8.65149C18.6164 8.71389 18.7101 9.15005 18.3988 9.33693L18.3984 9.33661Z" fill="url(#paint1_linear_79_4760)"/>
<defs>
<radialGradient id="paint0_radial_79_4760" cx="0" cy="0" r="1" gradientUnits="userSpaceOnUse" gradientTransform="translate(20.529 10.3667) rotate(118.617) scale(21.8315 15.8168)">
<stop stop-color="white"/>
<stop offset="1" stop-color="white" stop-opacity="0.8"/>
</radialGradient>
<linearGradient id="paint1_linear_79_4760" x1="13.5581" y1="3.24893" x2="16.0004" y2="29.5312" gradientUnits="userSpaceOnUse">
<stop stop-color="white"/>
<stop offset="1" stop-color="white" stop-opacity="0"/>
</linearGradient>
</defs>
</svg>
