<svg width="32" height="33" viewBox="0 0 32 33" fill="none" xmlns="http://www.w3.org/2000/svg">
<path d="M32 16.39C32 25.2265 24.8365 32.39 16 32.39C7.16352 32.39 0 25.2265 0 16.39C0 7.55353 7.16352 0.390015 16 0.390015C24.8365 0.390015 32 7.55353 32 16.39Z" fill="#8673FC"/>
<path d="M16.5 9.59375C15.1341 9.59375 13.7988 9.99879 12.6631 10.7577C11.5274 11.5165 10.6422 12.5951 10.1195 13.8571C9.59674 15.119 9.45998 16.5077 9.72645 17.8473C9.99293 19.187 10.6507 20.4176 11.6165 21.3835C12.5824 22.3493 13.813 23.0071 15.1527 23.2735C16.4923 23.54 17.881 23.4033 19.1429 22.8805C20.4049 22.3578 21.4835 21.4726 22.2423 20.3369C23.0012 19.2012 23.4063 17.8659 23.4063 16.5C23.4043 14.6689 22.6761 12.9134 21.3813 11.6187C20.0866 10.3239 18.3311 9.59568 16.5 9.59375ZM17.2969 19.6875H17.0313V20.2188C17.0313 20.3596 16.9753 20.4948 16.8757 20.5944C16.776 20.694 16.6409 20.75 16.5 20.75C16.3591 20.75 16.224 20.694 16.1244 20.5944C16.0247 20.4948 15.9688 20.3596 15.9688 20.2188V19.6875H14.9063C14.7654 19.6875 14.6302 19.6315 14.5306 19.5319C14.431 19.4323 14.375 19.2971 14.375 19.1562C14.375 19.0154 14.431 18.8802 14.5306 18.7806C14.6302 18.681 14.7654 18.625 14.9063 18.625H17.2969C17.5082 18.625 17.7109 18.541 17.8604 18.3916C18.0098 18.2422 18.0938 18.0395 18.0938 17.8281C18.0938 17.6168 18.0098 17.4141 17.8604 17.2646C17.7109 17.1152 17.5082 17.0312 17.2969 17.0312H15.7031C15.21 17.0312 14.7371 16.8354 14.3884 16.4867C14.0397 16.138 13.8438 15.665 13.8438 15.1719C13.8438 14.6787 14.0397 14.2058 14.3884 13.8571C14.7371 13.5084 15.21 13.3125 15.7031 13.3125H15.9688V12.7812C15.9688 12.6404 16.0247 12.5052 16.1244 12.4056C16.224 12.306 16.3591 12.25 16.5 12.25C16.6409 12.25 16.776 12.306 16.8757 12.4056C16.9753 12.5052 17.0313 12.6404 17.0313 12.7812V13.3125H18.0938C18.2346 13.3125 18.3698 13.3685 18.4694 13.4681C18.569 13.5677 18.625 13.7029 18.625 13.8438C18.625 13.9846 18.569 14.1198 18.4694 14.2194C18.3698 14.319 18.2346 14.375 18.0938 14.375H15.7031C15.4918 14.375 15.2891 14.459 15.1397 14.6084C14.9902 14.7578 14.9063 14.9605 14.9063 15.1719C14.9063 15.3832 14.9902 15.5859 15.1397 15.7354C15.2891 15.8848 15.4918 15.9688 15.7031 15.9688H17.2969C17.79 15.9688 18.263 16.1646 18.6117 16.5133C18.9604 16.862 19.1563 17.335 19.1563 17.8281C19.1563 18.3213 18.9604 18.7942 18.6117 19.1429C18.263 19.4916 17.79 19.6875 17.2969 19.6875Z" fill="#6457B2"/>
<path d="M16.5 8.59375C15.1341 8.59375 13.7988 8.99879 12.6631 9.75766C11.5274 10.5165 10.6422 11.5951 10.1195 12.8571C9.59674 14.119 9.45998 15.5077 9.72645 16.8473C9.99293 18.187 10.6507 19.4176 11.6165 20.3835C12.5824 21.3493 13.813 22.0071 15.1527 22.2735C16.4923 22.54 17.881 22.4033 19.1429 21.8805C20.4049 21.3578 21.4835 20.4726 22.2423 19.3369C23.0012 18.2012 23.4063 16.8659 23.4063 15.5C23.4043 13.6689 22.6761 11.9134 21.3813 10.6187C20.0866 9.32393 18.3311 8.59568 16.5 8.59375ZM17.2969 18.6875H17.0313V19.2188C17.0313 19.3596 16.9753 19.4948 16.8757 19.5944C16.776 19.694 16.6409 19.75 16.5 19.75C16.3591 19.75 16.224 19.694 16.1244 19.5944C16.0247 19.4948 15.9688 19.3596 15.9688 19.2188V18.6875H14.9063C14.7654 18.6875 14.6302 18.6315 14.5306 18.5319C14.431 18.4323 14.375 18.2971 14.375 18.1562C14.375 18.0154 14.431 17.8802 14.5306 17.7806C14.6302 17.681 14.7654 17.625 14.9063 17.625H17.2969C17.5082 17.625 17.7109 17.541 17.8604 17.3916C18.0098 17.2422 18.0938 17.0395 18.0938 16.8281C18.0938 16.6168 18.0098 16.4141 17.8604 16.2646C17.7109 16.1152 17.5082 16.0312 17.2969 16.0312H15.7031C15.21 16.0312 14.7371 15.8354 14.3884 15.4867C14.0397 15.138 13.8438 14.665 13.8438 14.1719C13.8438 13.6787 14.0397 13.2058 14.3884 12.8571C14.7371 12.5084 15.21 12.3125 15.7031 12.3125H15.9688V11.7812C15.9688 11.6404 16.0247 11.5052 16.1244 11.4056C16.224 11.306 16.3591 11.25 16.5 11.25C16.6409 11.25 16.776 11.306 16.8757 11.4056C16.9753 11.5052 17.0313 11.6404 17.0313 11.7812V12.3125H18.0938C18.2346 12.3125 18.3698 12.3685 18.4694 12.4681C18.569 12.5677 18.625 12.7029 18.625 12.8438C18.625 12.9846 18.569 13.1198 18.4694 13.2194C18.3698 13.319 18.2346 13.375 18.0938 13.375H15.7031C15.4918 13.375 15.2891 13.459 15.1397 13.6084C14.9902 13.7578 14.9063 13.9605 14.9063 14.1719C14.9063 14.3832 14.9902 14.5859 15.1397 14.7354C15.2891 14.8848 15.4918 14.9688 15.7031 14.9688H17.2969C17.79 14.9688 18.263 15.1646 18.6117 15.5133C18.9604 15.862 19.1563 16.335 19.1563 16.8281C19.1563 17.3213 18.9604 17.7942 18.6117 18.1429C18.263 18.4916 17.79 18.6875 17.2969 18.6875Z" fill="white"/>
</svg>
