<svg width="32" height="33" viewBox="0 0 32 33" fill="none" xmlns="http://www.w3.org/2000/svg">
<mask id="mask0_79_4719" style="mask-type:luminance" maskUnits="userSpaceOnUse" x="0" y="0" width="32" height="33">
<path d="M0 0.390015H32V32.39H0V0.390015Z" fill="white"/>
</mask>
<g mask="url(#mask0_79_4719)">
<path d="M16 32.39C24.8366 32.39 32 25.2266 32 16.39C32 7.55346 24.8366 0.390015 16 0.390015C7.16344 0.390015 0 7.55346 0 16.39C0 25.2266 7.16344 32.39 16 32.39Z" fill="#5F78FF"/>
<path d="M16 32.39C24.8366 32.39 32 25.2266 32 16.39C32 7.55346 24.8366 0.390015 16 0.390015C7.16344 0.390015 0 7.55346 0 16.39C0 25.2266 7.16344 32.39 16 32.39Z" fill="#00CA75"/>
<path d="M15.9758 7.91003C16.4308 7.91003 16.8858 8.23483 16.9834 8.68987L19.3882 17.4976L19.9732 16.36C20.331 15.6451 21.0458 15.19 21.826 15.19H25.3684C25.9207 15.19 26.4084 15.6774 26.4084 16.23C26.4084 16.815 25.9207 17.27 25.3684 17.27H21.826L20.0385 20.8774C19.8433 21.2675 19.4535 21.495 18.9985 21.43C18.5761 21.3974 18.2183 21.1049 18.1207 20.6825L16.106 13.3699L13.8958 23.7376C13.7985 24.2249 13.3761 24.55 12.9207 24.55C12.4334 24.5824 12.011 24.2576 11.8807 23.8025L9.99592 17.27H6.6484C6.06344 17.27 5.6084 16.815 5.6084 16.23C5.6084 15.6774 6.06344 15.19 6.6484 15.19H9.9956C10.9383 15.19 11.7508 15.8076 12.011 16.7174L12.7258 19.2198L14.9684 8.75483C15.066 8.26747 15.4884 7.94235 15.9758 7.91003Z" fill="url(#paint0_radial_79_4719)"/>
<path d="M15.9761 7.91006V7.51326H15.963L15.9499 7.5139L15.9761 7.91006ZM16.9838 8.6899L16.5957 8.7731L16.5979 8.78398L16.6011 8.79454L16.9838 8.6899ZM19.3886 17.4976L19.0059 17.6019L19.2747 18.5869L19.7419 17.679L19.3886 17.4976ZM19.9736 16.36L20.3269 16.5414L20.3288 16.5376L19.9736 16.36ZM21.8264 17.2701V16.8733H21.58L21.4705 17.0937L21.8264 17.2701ZM20.0389 20.8774L20.3941 21.055L20.3944 21.0537L20.0389 20.8774ZM18.9989 21.4301L19.0549 21.0371L19.0421 21.0352L19.0293 21.0342L18.9989 21.4301ZM18.1211 20.6825L18.508 20.5929L18.5061 20.5849L18.5038 20.5769L18.1211 20.6825ZM16.1064 13.3699L16.4888 13.2643L15.7179 13.2873L16.1064 13.3699ZM13.8961 23.7376L13.508 23.6547L13.5073 23.6573L13.507 23.6595L13.8961 23.7376ZM12.9211 24.5501V24.1533H12.9083L12.8949 24.1539L12.9211 24.5501ZM11.8811 23.8025L12.2629 23.6937V23.6925L11.8811 23.8025ZM9.99629 17.2701L10.3777 17.16L10.2945 16.8729H9.99629V17.2701ZM12.7262 19.2198L12.3445 19.3289L13.1144 19.3033L12.7262 19.2198ZM14.9688 8.75486L15.3569 8.83806L15.3576 8.8355L15.3579 8.83294L14.9688 8.75486ZM15.9761 8.30686C16.267 8.30686 16.5419 8.52254 16.5957 8.7731L17.372 8.6067C17.2305 7.9475 16.5957 7.51326 15.9761 7.51326V8.30686ZM16.6011 8.79454L19.0059 17.6019L19.7717 17.3929L17.3665 8.58526L16.6011 8.79454ZM19.7419 17.679L20.3269 16.5414L19.6206 16.1785L19.0357 17.3158L19.7419 17.679ZM20.3288 16.5376C20.6219 15.951 21.203 15.5872 21.8264 15.5872V14.7929C20.8894 14.7929 20.0405 15.3389 19.6187 16.1824L20.3288 16.5376ZM21.8264 15.5872H25.3688V14.7929H21.8264V15.5872ZM25.3688 15.5872C25.7019 15.5872 26.012 15.8966 26.012 16.2301H26.8056C26.8056 15.4582 26.1403 14.7929 25.3688 14.7929V15.5872ZM26.012 16.2301C26.012 16.5878 25.7102 16.8733 25.3688 16.8733V17.6669C26.1323 17.6669 26.8056 17.0422 26.8056 16.2301H26.012ZM25.3688 16.8733H21.8264V17.6669H25.3688V16.8733ZM21.4705 17.0937L19.683 20.7011L20.3944 21.0537L22.1819 17.4461L21.4705 17.0937ZM19.6837 20.7001C19.5601 20.9469 19.3301 21.0765 19.0549 21.0371L18.9429 21.823C19.5774 21.9136 20.1275 21.5878 20.3941 21.055L19.6837 20.7001ZM19.0293 21.0342C18.7726 21.0144 18.5649 20.8397 18.508 20.5929L17.7345 20.7718C17.8725 21.3702 18.3797 21.7805 18.9685 21.8259L19.0293 21.0342ZM18.5038 20.5769L16.4888 13.2646L15.7237 13.4755L17.7387 20.7878L18.5038 20.5769ZM15.7179 13.2873L13.508 23.6547L14.2843 23.8201L16.4945 13.4528L15.7179 13.2873ZM13.507 23.6595C13.4472 23.9593 13.1896 24.1529 12.9214 24.1529V24.9469C13.563 24.9469 14.1502 24.4909 14.2856 23.8153L13.507 23.6595ZM12.8949 24.1539C12.6072 24.1731 12.3451 23.9821 12.2629 23.6937L11.4997 23.9117C11.6773 24.5334 12.2603 24.992 12.9477 24.9459L12.8949 24.1539ZM12.2629 23.6925L10.3777 17.16L9.61486 17.3801L11.4997 23.9126L12.2629 23.6925ZM9.99629 16.8729L6.64877 16.8733V17.6669H9.99598V16.8733L9.99629 16.8729ZM6.64877 16.8733C6.28302 16.8733 6.00558 16.5958 6.00558 16.2301H5.21198C5.21022 16.4192 5.24619 16.6069 5.31778 16.782C5.38936 16.9571 5.49513 17.1162 5.6289 17.2499C5.76267 17.3837 5.92176 17.4895 6.09687 17.5611C6.27198 17.6326 6.4596 17.6686 6.64877 17.6669V16.8733ZM6.00558 16.2301C6.00558 15.8886 6.29102 15.5869 6.64877 15.5869V14.7933C5.83661 14.7933 5.21198 15.4662 5.21198 16.2301H6.00558ZM6.64877 15.5869H9.99598V14.7933H6.64877V15.5869ZM9.99598 15.5869C10.7598 15.5869 11.4177 16.0851 11.6296 16.8265L12.3928 16.6083C12.0846 15.5299 11.1179 14.7933 9.99598 14.7933V15.5869ZM11.6296 16.8265L12.3445 19.3289L13.108 19.111L12.3928 16.6083L11.6296 16.8265ZM13.1144 19.3033L15.3569 8.83806L14.5806 8.67166L12.3381 19.1369L13.1144 19.3033ZM15.3579 8.83294C15.4158 8.54302 15.6709 8.32798 16.0027 8.3059L15.9499 7.5139C15.3067 7.55678 14.7166 7.99198 14.5797 8.6771L15.3579 8.83294Z" fill="url(#paint1_linear_79_4719)"/>
</g>
<defs>
<radialGradient id="paint0_radial_79_4719" cx="0" cy="0" r="1" gradientUnits="userSpaceOnUse" gradientTransform="translate(26.1252 9.65208) rotate(123.362) scale(26.2665 24.6391)">
<stop stop-color="white"/>
<stop offset="1" stop-color="#E3EFF7"/>
</radialGradient>
<linearGradient id="paint1_linear_79_4719" x1="16.0088" y1="-4.40994" x2="16.0088" y2="37.1206" gradientUnits="userSpaceOnUse">
<stop stop-color="white"/>
<stop offset="1" stop-color="white" stop-opacity="0"/>
</linearGradient>
</defs>
</svg>
