<svg width="32" height="32" viewBox="0 0 32 32" fill="none" xmlns="http://www.w3.org/2000/svg">
<path d="M16 32C24.8366 32 32 24.8366 32 16C32 7.16344 24.8366 0 16 0C7.16344 0 0 7.16344 0 16C0 24.8366 7.16344 32 16 32Z" fill="#FFCA0B"/>
<path d="M23.0078 13.8491C22.9812 13.7827 22.9534 13.7163 22.9248 13.6499C22.4964 12.6618 21.803 11.8114 20.9213 11.1929H22.3438C22.4846 11.1929 22.6198 11.1369 22.7194 11.0373C22.819 10.9376 22.875 10.8025 22.875 10.6616C22.875 10.5207 22.819 10.3856 22.7194 10.286C22.6198 10.1863 22.4846 10.1304 22.3438 10.1304H15.4375C13.9687 10.1322 12.5542 10.6864 11.4751 11.6829C10.396 12.6794 9.73102 14.0452 9.61234 15.5093C9.15345 15.6234 8.74572 15.8872 8.45368 16.2591C8.16164 16.631 8.00199 17.0897 8 17.5626C8 17.7035 8.05597 17.8386 8.1556 17.9382C8.25523 18.0378 8.39035 18.0938 8.53125 18.0938C8.67215 18.0938 8.80727 18.0378 8.9069 17.9382C9.00653 17.8386 9.0625 17.7035 9.0625 17.5626C9.06262 17.3688 9.11571 17.1788 9.21602 17.0131C9.31632 16.8474 9.46003 16.7122 9.6316 16.6222C9.76384 17.8141 10.2608 18.9362 11.0547 19.835L11.8888 22.1698C11.9625 22.3763 12.0983 22.555 12.2776 22.6813C12.4569 22.8075 12.6709 22.8752 12.8902 22.8751H13.7348C13.954 22.8751 14.1678 22.8073 14.347 22.6811C14.5262 22.5548 14.6619 22.3762 14.7356 22.1698L14.8631 21.8126H18.6682L18.7957 22.1698C18.8694 22.3762 19.0051 22.5548 19.1843 22.6811C19.3634 22.8073 19.5772 22.8751 19.7964 22.8751H20.6411C20.8603 22.8751 21.0741 22.8073 21.2532 22.6811C21.4324 22.5548 21.5681 22.3762 21.6418 22.1698L22.7183 19.1563H22.875C23.2977 19.1563 23.7031 18.9884 24.002 18.6895C24.3008 18.3906 24.4688 17.9852 24.4688 17.5626V15.4376C24.4688 15.0378 24.3186 14.6527 24.048 14.3584C23.7774 14.0642 23.4062 13.8824 23.0078 13.8491ZM18.0938 12.7813H15.4375C15.2966 12.7813 15.1615 12.7253 15.0618 12.6257C14.9622 12.5261 14.9062 12.391 14.9062 12.2501C14.9062 12.1092 14.9622 11.974 15.0618 11.8744C15.1615 11.7748 15.2966 11.7188 15.4375 11.7188H18.0938C18.2346 11.7188 18.3698 11.7748 18.4694 11.8744C18.569 11.974 18.625 12.1092 18.625 12.2501C18.625 12.391 18.569 12.5261 18.4694 12.6257C18.3698 12.7253 18.2346 12.7813 18.0938 12.7813ZM19.9531 16.5001C19.7955 16.5001 19.6415 16.4533 19.5104 16.3658C19.3794 16.2782 19.2772 16.1537 19.2169 16.0081C19.1566 15.8625 19.1408 15.7023 19.1716 15.5477C19.2023 15.3931 19.2782 15.2512 19.3896 15.1397C19.5011 15.0283 19.6431 14.9524 19.7977 14.9216C19.9522 14.8909 20.1125 14.9067 20.2581 14.967C20.4037 15.0273 20.5281 15.1294 20.6157 15.2605C20.7033 15.3915 20.75 15.5456 20.75 15.7032C20.75 15.9145 20.666 16.1172 20.5166 16.2667C20.3672 16.4161 20.1645 16.5001 19.9531 16.5001Z" fill="#C79E0B"/>
<path d="M23.0078 12.8491C22.9812 12.7827 22.9534 12.7163 22.9248 12.6499C22.4964 11.6618 21.803 10.8114 20.9213 10.1929H22.3438C22.4846 10.1929 22.6198 10.1369 22.7194 10.0373C22.819 9.93764 22.875 9.80252 22.875 9.66162C22.875 9.52072 22.819 9.3856 22.7194 9.28597C22.6198 9.18634 22.4846 9.13037 22.3438 9.13037H15.4375C13.9687 9.13224 12.5542 9.68643 11.4751 10.6829C10.396 11.6794 9.73102 13.0452 9.61234 14.5093C9.15345 14.6234 8.74572 14.8872 8.45368 15.2591C8.16164 15.631 8.00199 16.0897 8 16.5626C8 16.7035 8.05597 16.8386 8.1556 16.9382C8.25523 17.0378 8.39035 17.0938 8.53125 17.0938C8.67215 17.0938 8.80727 17.0378 8.9069 16.9382C9.00653 16.8386 9.0625 16.7035 9.0625 16.5626C9.06262 16.3688 9.11571 16.1788 9.21602 16.0131C9.31632 15.8474 9.46003 15.7122 9.6316 15.6222C9.76384 16.8141 10.2608 17.9362 11.0547 18.835L11.8888 21.1698C11.9625 21.3763 12.0983 21.555 12.2776 21.6813C12.4569 21.8075 12.6709 21.8752 12.8902 21.8751H13.7348C13.954 21.8751 14.1678 21.8073 14.347 21.6811C14.5262 21.5548 14.6619 21.3762 14.7356 21.1698L14.8631 20.8126H18.6682L18.7957 21.1698C18.8694 21.3762 19.0051 21.5548 19.1843 21.6811C19.3634 21.8073 19.5772 21.8751 19.7964 21.8751H20.6411C20.8603 21.8751 21.0741 21.8073 21.2532 21.6811C21.4324 21.5548 21.5681 21.3762 21.6418 21.1698L22.7183 18.1563H22.875C23.2977 18.1563 23.7031 17.9884 24.002 17.6895C24.3008 17.3906 24.4688 16.9852 24.4688 16.5626V14.4376C24.4688 14.0378 24.3186 13.6527 24.048 13.3584C23.7774 13.0642 23.4062 12.8824 23.0078 12.8491ZM18.0938 11.7813H15.4375C15.2966 11.7813 15.1615 11.7253 15.0618 11.6257C14.9622 11.5261 14.9062 11.391 14.9062 11.2501C14.9062 11.1092 14.9622 10.974 15.0618 10.8744C15.1615 10.7748 15.2966 10.7188 15.4375 10.7188H18.0938C18.2346 10.7188 18.3698 10.7748 18.4694 10.8744C18.569 10.974 18.625 11.1092 18.625 11.2501C18.625 11.391 18.569 11.5261 18.4694 11.6257C18.3698 11.7253 18.2346 11.7813 18.0938 11.7813ZM19.9531 15.5001C19.7955 15.5001 19.6415 15.4533 19.5104 15.3658C19.3794 15.2782 19.2772 15.1537 19.2169 15.0081C19.1566 14.8625 19.1408 14.7023 19.1716 14.5477C19.2023 14.3931 19.2782 14.2512 19.3896 14.1397C19.5011 14.0283 19.6431 13.9524 19.7977 13.9216C19.9522 13.8909 20.1125 13.9067 20.2581 13.967C20.4037 14.0273 20.5281 14.1294 20.6157 14.2605C20.7033 14.3915 20.75 14.5456 20.75 14.7032C20.75 14.9145 20.666 15.1172 20.5166 15.2667C20.3672 15.4161 20.1645 15.5001 19.9531 15.5001Z" fill="white"/>
</svg>
